
# www.tom-crowley.co.uk / www.undeadmodding.com
# Generated By Tom_Bmx XmodelUtills
# Parent Xmodel: weapon_usa_explosive_russian
# Surface Load Time: 0.00ms
# Total Meshes: 1

mtllib weapon_explosives_lod21.mtl
v -7.539022 8.251637 -0.060226
v -7.539022 -0.057186 0.904822
v -7.539022 0.907860 -0.060223
v -7.539022 9.216680 0.904817
v -7.539022 9.216681 8.072628
v -7.539022 -0.057183 8.072630
v -7.539022 0.907860 9.037673
v -7.539022 8.251639 9.037670
v -7.539022 -9.155080 0.904819
v -7.539022 -8.190032 9.037673
v -7.539022 -9.155074 8.072630
v -7.539022 -8.190037 -0.060221
v -7.539022 -1.022228 -0.060223
v -7.539022 -1.022223 9.037673
v -7.539022 -0.057178 8.072630
v -7.539022 -0.057183 0.904822
v -7.539017 3.616597 9.037670
v -7.539017 -4.692225 10.002715
v -7.539017 -3.727186 9.037673
v -7.539017 4.581639 10.002713
v -7.539017 4.581637 17.170525
v -7.539017 -4.692225 17.170527
v -7.539017 -3.727183 18.135567
v -7.539017 3.616597 18.135565
v 6.761530 -3.712987 9.037670
v 6.761530 4.595835 10.002715
v 6.761530 3.630793 9.037673
v 6.761530 -4.678030 10.002713
v 6.761530 -4.678032 17.170525
v 6.761530 4.595835 17.170527
v 6.761530 3.630793 18.135567
v 6.761530 -3.712990 18.135565
v 6.761539 -8.219829 -0.060226
v 6.761539 0.088994 0.904822
v 6.761539 -0.876049 -0.060223
v 6.761539 -9.184871 0.904819
v 6.761539 -9.184874 8.072630
v 6.761539 0.088991 8.072630
v 6.761539 -0.876049 9.037673
v 6.761539 -8.219831 9.037673
v 6.761539 9.186885 0.904819
v 6.761539 8.221840 9.037673
v 6.761539 9.186880 8.072630
v 6.761539 8.221843 -0.060221
v 6.761539 1.054039 -0.060223
v 6.761539 1.054031 9.037673
v 6.761539 0.088986 8.072630
v 6.761539 0.088994 0.904819
v 6.423018 0.907857 -0.060223
v -7.192358 -0.057186 0.904819
v 6.414874 0.088994 0.904819
v -7.192358 0.907860 -0.060223
v 6.414874 8.221843 -0.060221
v -7.192358 8.251637 -0.060226
v -7.192358 9.216680 0.904817
v 6.423018 9.216677 0.904817
v 6.423018 9.216680 8.072628
v -7.192353 9.216681 8.072628
v 6.423018 8.251639 9.037673
v -7.192353 8.251639 9.037670
v 6.414869 1.054029 9.037673
v -7.192353 0.907860 9.037673
v 6.414869 0.088986 8.072630
v -7.192353 -0.057183 8.072630
v 6.414874 0.088994 0.904819
v -7.192358 -0.057186 0.904819
v 6.414869 -9.184874 8.072628
v -7.192358 -8.190032 9.037673
v 6.414869 -8.219831 9.037673
v -7.192358 -9.155074 8.072630
v 6.423018 -9.155080 0.904822
v -7.192358 -9.155080 0.904819
v -7.192358 -8.190037 -0.060221
v 6.414874 -8.219829 -0.060223
v 6.414874 -0.876049 -0.060223
v -7.192353 -1.022228 -0.060223
v 6.414874 0.088994 0.904819
v -7.192353 -0.057183 0.904819
v 6.414869 0.088991 8.072630
v -7.192353 -0.057178 8.072630
v 6.423018 -1.022223 9.037673
v -7.192353 -1.022223 9.037673
v 6.414869 -8.219831 9.037673
v -7.192358 -8.190032 9.037673
v 6.423022 -3.727186 9.037673
v -7.192353 -4.692225 10.002715
v 6.423022 -4.692225 10.002715
v -7.192353 -3.727186 9.037673
v 6.423022 3.616597 9.037673
v -7.192353 3.616597 9.037670
v -7.192353 4.581639 10.002713
v 6.423022 4.581639 10.002713
v 6.423022 4.581639 17.170527
v -7.192348 4.581637 17.170525
v 6.423022 3.616599 18.135569
v -7.192353 3.616597 18.135565
v 6.423022 -3.727183 18.135567
v -7.192353 -3.727183 18.135567
v 6.423022 -4.692228 17.170527
v -7.192348 -4.692225 17.170527
v 6.423022 -4.692225 10.002715
v -7.192353 -4.692225 10.002715
v -1.927766 -9.155074 8.072630
v 1.534025 -4.692225 17.170525
v 1.534028 -9.155074 8.072630
v -1.927766 -4.692225 17.170525
v 1.534028 9.248564 8.072628
v -1.927766 4.613519 17.170521
v -1.927766 9.248564 8.072628
v 1.534023 4.613519 17.170525
v -7.192358 8.251637 -0.060226
v -7.539022 9.216680 0.904817
v -7.539022 8.251637 -0.060226
v -7.192358 9.216680 0.904817
v -7.539022 9.216681 8.072628
v -7.192353 9.216681 8.072628
v -7.539022 8.251639 9.037670
v -7.192353 8.251639 9.037670
v -7.539022 0.907860 9.037673
v -7.192358 0.907860 -0.060223
v -7.539022 0.907860 -0.060223
v -7.192358 -0.057186 0.904822
v -7.539022 -0.057186 0.904822
v -7.192353 -0.057183 8.072630
v -7.539022 -0.057183 8.072630
v -7.192353 0.907860 9.037673
v -7.539022 -9.155074 8.072630
v -7.192358 -8.190032 9.037673
v -7.192358 -9.155074 8.072630
v -7.539022 -8.190032 9.037673
v -7.192353 -1.022223 9.037673
v -7.539022 -1.022223 9.037673
v -7.192353 -0.057178 8.072630
v -7.539022 -0.057178 8.072630
v -7.192353 -0.057183 0.904822
v -7.539022 -9.155080 0.904819
v -7.192358 -9.155080 0.904819
v -7.539022 -8.190037 -0.060221
v -7.192358 -8.190037 -0.060221
v -7.539022 -1.022228 -0.060223
v -7.192353 -1.022228 -0.060223
v -7.539022 -0.057183 0.904822
v -7.192353 3.616597 9.037670
v -7.539017 4.581639 10.002713
v -7.539017 3.616597 9.037670
v -7.192353 4.581639 10.002713
v -7.539017 4.581637 17.170525
v -7.192348 4.581637 17.170525
v -7.539017 3.616597 18.135565
v -7.192353 3.616597 18.135565
v -7.539017 -3.727183 18.135567
v -7.192353 -3.727186 9.037673
v -7.539017 -3.727186 9.037673
v -7.192353 -4.692225 10.002715
v -7.539017 -4.692225 10.002715
v -7.192348 -4.692225 17.170527
v -7.539017 -4.692225 17.170527
v -7.192353 -3.727183 18.135567
v 6.414866 -3.712987 9.037670
v 6.761530 -4.678030 10.002713
v 6.761530 -3.712987 9.037670
v 6.414866 -4.678030 10.002713
v 6.761530 -4.678032 17.170525
v 6.414864 -4.678032 17.170525
v 6.761530 -3.712990 18.135565
v 6.414866 -3.712990 18.135565
v 6.761530 3.630793 18.135567
v 6.414866 3.630793 9.037673
v 6.761530 3.630793 9.037673
v 6.414866 4.595835 10.002715
v 6.761530 4.595835 10.002715
v 6.414864 4.595835 17.170527
v 6.761530 4.595835 17.170527
v 6.414866 3.630793 18.135567
v 6.414874 -8.219829 -0.060223
v 6.761539 -9.184871 0.904819
v 6.761539 -8.219829 -0.060226
v 6.423018 -9.155080 0.904822
v 6.761539 -9.184874 8.072630
v 6.414869 -9.184874 8.072628
v 6.761539 -8.219831 9.037673
v 6.414869 -8.219831 9.037673
v 6.761539 -0.876049 9.037673
v 6.414874 -0.876049 -0.060223
v 6.761539 -0.876049 -0.060223
v 6.414874 0.088994 0.904819
v 6.761539 0.088994 0.904822
v 6.414869 0.088991 8.072630
v 6.761539 0.088991 8.072630
v 6.423018 -1.022223 9.037673
v 6.761539 9.186880 8.072630
v 6.423018 8.251639 9.037673
v 6.423018 9.216680 8.072628
v 6.761539 8.221840 9.037673
v 6.414869 1.054029 9.037673
v 6.761539 1.054031 9.037673
v 6.414869 0.088986 8.072630
v 6.761539 0.088986 8.072630
v 6.414869 0.088994 0.904819
v 6.761539 9.186885 0.904819
v 6.423018 9.216677 0.904817
v 6.761539 8.221843 -0.060221
v 6.414874 8.221843 -0.060221
v 6.761539 1.054039 -0.060223
v 6.423018 0.907857 -0.060223
v 6.761539 0.088994 0.904819
# 206 vertices

vt 0.531793 0.991553
vt 0.742608 0.934535
vt 0.718202 0.992860
vt 0.507297 0.934695
vt 0.507297 0.568847
vt 0.742601 0.568834
vt 0.718274 0.510786
vt 0.531787 0.510559
vt 0.531953 0.991555
vt 0.742749 0.934535
vt 0.718389 0.992861
vt 0.507141 0.934695
vt 0.507152 0.568847
vt 0.742752 0.568838
vt 0.718114 0.510786
vt 0.531600 0.510559
vt 0.531793 0.991553
vt 0.742608 0.934535
vt 0.718202 0.992860
vt 0.507297 0.934695
vt 0.507297 0.568847
vt 0.742601 0.568834
vt 0.718274 0.510786
vt 0.531787 0.510559
vt 0.531793 0.991553
vt 0.742608 0.934535
vt 0.718202 0.992860
vt 0.507297 0.934695
vt 0.507297 0.568847
vt 0.742601 0.568834
vt 0.718274 0.510786
vt 0.531787 0.510559
vt 0.531793 0.991553
vt 0.742608 0.934535
vt 0.718202 0.992860
vt 0.507297 0.934695
vt 0.507297 0.568847
vt 0.742601 0.568834
vt 0.718274 0.510786
vt 0.531787 0.510559
vt 0.531953 0.991555
vt 0.742749 0.934535
vt 0.718389 0.992861
vt 0.507141 0.934695
vt 0.507152 0.568847
vt 0.742752 0.568838
vt 0.718114 0.510786
vt 0.531600 0.510559
vt 0.500000 0.993627
vt 0.000000 1.033163
vt 0.500000 1.033163
vt 0.000000 0.993627
vt 0.500000 0.757505
vt 0.000000 0.757505
vt 0.000000 0.717969
vt 0.500000 0.717969
vt 0.500000 0.533163
vt 0.000000 0.533163
vt 0.500000 0.493627
vt 0.000000 0.493627
vt 0.500000 0.257505
vt 0.000000 0.257505
vt 0.500000 0.217969
vt 0.000000 0.217969
vt 0.500000 0.033163
vt 0.000000 0.033163
vt 0.500000 0.993627
vt 0.000000 1.033163
vt 0.500000 1.033163
vt 0.000000 0.993627
vt 0.500000 0.757505
vt 0.000000 0.757505
vt 0.000000 0.717969
vt 0.500000 0.717969
vt 0.500000 0.533163
vt 0.000000 0.533163
vt 0.500000 0.493627
vt 0.000000 0.493627
vt 0.500000 0.257505
vt 0.000000 0.257505
vt 0.500000 0.217969
vt 0.000000 0.217969
vt 0.500000 0.033163
vt 0.000000 0.033163
vt 0.500000 0.993627
vt 0.000000 1.033163
vt 0.500000 1.033163
vt 0.000000 0.993627
vt 0.500000 0.757505
vt 0.000000 0.757505
vt 0.000000 0.717969
vt 0.500000 0.717969
vt 0.500000 0.533163
vt 0.000000 0.533163
vt 0.500000 0.493627
vt 0.000000 0.493627
vt 0.500000 0.257505
vt 0.000000 0.257505
vt 0.500000 0.217969
vt 0.000000 0.217969
vt 0.500000 0.033163
vt 0.000000 0.033163
vt 0.195212 1.000000
vt 0.319344 0.000000
vt 0.319344 1.000000
vt 0.195212 0.000000
vt 0.319344 0.000000
vt 0.195212 1.000000
vt 0.195212 0.000000
vt 0.319344 1.000000
vt 0.528038 0.984259
vt 0.500234 0.941241
vt 0.525749 1.004399
vt 0.510762 0.935748
vt 0.500234 0.560400
vt 0.510762 0.562231
vt 0.526979 0.501532
vt 0.529411 0.519213
vt 0.721115 0.501819
vt 0.722025 0.984259
vt 0.722940 1.002568
vt 0.739301 0.939410
vt 0.749828 0.941241
vt 0.738385 0.565893
vt 0.749828 0.560400
vt 0.717905 0.519213
vt 0.722940 1.002568
vt 0.739301 0.939410
vt 0.722025 0.984259
vt 0.749828 0.941241
vt 0.738385 0.565893
vt 0.749828 0.560400
vt 0.717905 0.519213
vt 0.721115 0.501819
vt 0.529411 0.519213
vt 0.525749 1.004399
vt 0.528038 0.984259
vt 0.500234 0.941241
vt 0.510762 0.935748
vt 0.500234 0.560400
vt 0.510762 0.562231
vt 0.526979 0.501532
vt 0.528038 0.984259
vt 0.500234 0.941241
vt 0.525749 1.004399
vt 0.510762 0.935748
vt 0.500234 0.560400
vt 0.510762 0.562231
vt 0.526979 0.501532
vt 0.529411 0.519213
vt 0.721115 0.501819
vt 0.722025 0.984259
vt 0.722940 1.002568
vt 0.739301 0.939410
vt 0.749828 0.941241
vt 0.738385 0.565893
vt 0.749828 0.560400
vt 0.717905 0.519213
vt 0.528038 0.984259
vt 0.500234 0.941241
vt 0.525749 1.004399
vt 0.510762 0.935748
vt 0.500234 0.560400
vt 0.510762 0.562231
vt 0.526979 0.501532
vt 0.529411 0.519213
vt 0.721115 0.501819
vt 0.722025 0.984259
vt 0.722940 1.002568
vt 0.739301 0.939410
vt 0.749828 0.941241
vt 0.738385 0.565893
vt 0.749828 0.560400
vt 0.717905 0.519213
vt 0.528038 0.984259
vt 0.500234 0.941241
vt 0.525749 1.004399
vt 0.510762 0.935748
vt 0.500234 0.560400
vt 0.510762 0.562231
vt 0.526979 0.501532
vt 0.529411 0.519213
vt 0.721115 0.501819
vt 0.722025 0.984259
vt 0.722940 1.002568
vt 0.739301 0.939410
vt 0.749828 0.941241
vt 0.738385 0.565893
vt 0.749828 0.560400
vt 0.717905 0.519213
vt 0.722940 1.002568
vt 0.739301 0.939410
vt 0.722025 0.984259
vt 0.749828 0.941241
vt 0.738385 0.565893
vt 0.749828 0.560400
vt 0.717905 0.519213
vt 0.721115 0.501819
vt 0.529411 0.519213
vt 0.525749 1.004399
vt 0.528038 0.984259
vt 0.500234 0.941241
vt 0.510762 0.935748
vt 0.500234 0.560400
vt 0.510762 0.562231
vt 0.526979 0.501532
# 206 UV's

vn -0.581522 0.205599 -0.787122
vn -0.819431 -0.554572 -0.144856
vn -0.336557 -0.475963 -0.812520
vn -0.581522 0.701960 -0.411199
vn -0.819431 0.554572 0.144856
vn -0.581522 -0.701960 0.411199
vn -0.581523 -0.205599 0.787122
vn -0.336557 0.475963 0.812520
vn -0.581522 -0.787122 -0.205599
vn -0.819431 -0.144857 0.554572
vn -0.336557 -0.812520 0.475963
vn -0.581522 -0.411198 -0.701960
vn -0.819431 0.144856 -0.554572
vn -0.581522 0.411198 0.701960
vn -0.581522 0.787122 0.205599
vn -0.336557 0.812520 -0.475964
vn -0.581522 0.205599 -0.787122
vn -0.819431 -0.554572 -0.144856
vn -0.336557 -0.475964 -0.812520
vn -0.581522 0.701960 -0.411199
vn -0.819431 0.554572 0.144857
vn -0.581523 -0.701959 0.411199
vn -0.581522 -0.205599 0.787122
vn -0.336557 0.475963 0.812520
vn 0.581523 -0.205599 -0.787122
vn 0.819431 0.554572 -0.144856
vn 0.336557 0.475964 -0.812520
vn 0.581522 -0.701960 -0.411198
vn 0.819431 -0.554572 0.144856
vn 0.581523 0.701959 0.411199
vn 0.581522 0.205599 0.787122
vn 0.336557 -0.475963 0.812520
vn 0.581521 -0.205599 -0.787123
vn 0.819431 0.554572 -0.144856
vn 0.336556 0.475963 -0.812520
vn 0.551556 -0.721857 -0.417981
vn 0.813868 -0.562347 0.146232
vn 0.529521 0.722979 0.443744
vn 0.526168 0.208339 0.824465
vn 0.336557 -0.475963 0.812520
vn 0.625790 0.754603 -0.197386
vn 0.823704 0.143109 0.548663
vn 0.398314 0.791293 0.463898
vn 0.593027 0.403195 -0.696960
vn 0.841068 -0.132524 -0.524445
vn 0.581522 -0.411199 0.701960
vn 0.581523 -0.787122 0.205599
vn 0.422134 -0.796796 -0.432342
vn 0.002952 -0.529565 -0.848265
vn 0.006722 -0.876827 -0.480759
vn 0.010459 -0.973602 -0.228012
vn 0.000000 -0.252724 -0.967538
vn 0.000419 0.379164 -0.925329
vn 0.000838 0.382683 -0.923879
vn 0.000420 0.922421 -0.386186
vn 0.000000 0.920944 -0.389695
vn 0.000000 0.967538 0.252724
vn 0.000000 0.862856 0.505450
vn 0.000000 0.505449 0.862856
vn 0.000000 0.252724 0.967538
vn 0.002715 -0.252719 0.967536
vn 0.005429 -0.505437 0.862846
vn 0.009268 -0.862817 0.505432
vn 0.010393 -0.967485 0.252716
vn 0.010459 -0.973602 -0.228012
vn 0.006722 -0.876827 -0.480759
vn -0.001891 -0.863502 0.504342
vn -0.001107 -0.505449 0.862856
vn -0.000553 -0.252725 0.967538
vn -0.001337 -0.967900 0.251333
vn -0.001016 -0.924980 -0.380014
vn 0.000000 -0.923880 -0.382683
vn -0.000426 -0.386297 -0.922374
vn -0.000854 -0.389918 -0.920849
vn -0.002715 0.252719 -0.967536
vn -0.005430 0.505437 -0.862846
vn -0.009269 0.862816 -0.505433
vn -0.010393 0.967484 -0.252717
vn -0.010332 0.961826 0.273467
vn -0.006401 0.850327 0.526215
vn -0.002503 0.484259 0.874921
vn 0.000000 0.252725 0.967538
vn -0.000553 -0.252725 0.967538
vn -0.001107 -0.505449 0.862856
vn 0.000000 -0.505450 -0.862856
vn 0.000000 -0.862856 -0.505449
vn -0.000000 -0.967538 -0.252725
vn 0.000000 -0.252725 -0.967538
vn 0.000000 0.382683 -0.923880
vn 0.000000 0.382683 -0.923880
vn 0.000000 0.923879 -0.382684
vn 0.000000 0.923879 -0.382684
vn 0.000000 0.967538 0.252724
vn 0.000000 0.862856 0.505449
vn 0.000000 0.505450 0.862856
vn 0.000000 0.252725 0.967538
vn 0.000000 -0.252725 0.967538
vn 0.000000 -0.505449 0.862857
vn 0.000000 -0.862856 0.505450
vn 0.000000 -0.967538 0.252725
vn -0.000000 -0.967538 -0.252725
vn 0.000000 -0.862856 -0.505449
vn 0.000000 -0.897800 0.440404
vn 0.000000 -0.897800 0.440404
vn 0.000000 -0.897800 0.440404
vn 0.000000 -0.897800 0.440403
vn -0.000001 0.891029 0.453947
vn -0.000001 0.891029 0.453947
vn -0.000001 0.891029 0.453947
vn 0.000000 0.891029 0.453947
vn 0.000000 0.505449 -0.862856
vn -0.581522 0.701960 -0.411199
vn -0.581522 0.205599 -0.787122
vn 0.000000 0.967538 -0.252725
vn -0.819431 0.554572 0.144856
vn 0.000000 0.862856 0.505450
vn -0.336557 0.475963 0.812520
vn 0.000000 0.252725 0.967538
vn -0.581523 -0.205599 0.787122
vn 0.000000 -0.252725 -0.967538
vn -0.336557 -0.475963 -0.812520
vn 0.000000 -0.862856 -0.505450
vn -0.819431 -0.554572 -0.144856
vn 0.000000 -0.967538 0.252725
vn -0.581522 -0.701960 0.411199
vn 0.000000 -0.505449 0.862856
vn -0.336557 -0.812520 0.475963
vn 0.000000 -0.505450 0.862856
vn 0.000000 -0.967538 0.252725
vn -0.819431 -0.144857 0.554572
vn 0.000000 0.252725 0.967538
vn -0.581522 0.411198 0.701960
vn 0.000000 0.862856 0.505450
vn -0.581522 0.787122 0.205599
vn 0.000000 0.967538 -0.252726
vn -0.581522 -0.787122 -0.205599
vn 0.000000 -0.862856 -0.505450
vn -0.581522 -0.411198 -0.701960
vn 0.000000 -0.252724 -0.967538
vn -0.819431 0.144856 -0.554572
vn 0.000000 0.505449 -0.862857
vn -0.336557 0.812520 -0.475964
vn 0.000000 0.505449 -0.862856
vn -0.581522 0.701960 -0.411199
vn -0.581522 0.205599 -0.787122
vn 0.000000 0.967538 -0.252725
vn -0.819431 0.554572 0.144857
vn 0.000000 0.862856 0.505450
vn -0.336557 0.475963 0.812520
vn 0.000000 0.252725 0.967538
vn -0.581522 -0.205599 0.787122
vn 0.000000 -0.252725 -0.967538
vn -0.336557 -0.475964 -0.812520
vn 0.000000 -0.862856 -0.505449
vn -0.819431 -0.554572 -0.144856
vn 0.000000 -0.967538 0.252725
vn -0.581523 -0.701959 0.411199
vn 0.000000 -0.505448 0.862857
vn 0.000000 -0.505450 -0.862856
vn 0.581522 -0.701960 -0.411198
vn 0.581523 -0.205599 -0.787122
vn 0.000000 -0.967538 -0.252725
vn 0.819431 -0.554572 0.144856
vn 0.000000 -0.862856 0.505450
vn 0.336557 -0.475963 0.812520
vn 0.000000 -0.252725 0.967538
vn 0.581522 0.205599 0.787122
vn 0.000000 0.252725 -0.967538
vn 0.336557 0.475964 -0.812520
vn 0.000000 0.862856 -0.505449
vn 0.819431 0.554572 -0.144856
vn 0.000000 0.967538 0.252725
vn 0.581523 0.701959 0.411199
vn 0.000000 0.505449 0.862857
vn -0.022600 -0.509939 -0.859914
vn 0.551556 -0.721857 -0.417981
vn 0.581521 -0.205599 -0.787123
vn -0.053741 -0.967026 -0.248942
vn 0.813868 -0.562347 0.146232
vn 0.000000 -0.863503 0.504344
vn 0.336557 -0.475963 0.812520
vn 0.000002 -0.252725 0.967538
vn 0.526168 0.208339 0.824465
vn -0.000002 0.252724 -0.967538
vn 0.336556 0.475963 -0.812520
vn 0.000000 0.862856 -0.505450
vn 0.819431 0.554572 -0.144856
vn 0.000000 0.961882 0.273465
vn 0.529521 0.722979 0.443744
vn -0.104754 0.477826 0.872186
vn 0.398314 0.791293 0.463898
vn 0.044419 0.504650 0.862181
vn 0.084849 0.963961 0.252149
vn 0.823704 0.143109 0.548663
vn -0.000003 -0.252725 0.967538
vn 0.581522 -0.411199 0.701960
vn 0.000001 -0.862856 0.505449
vn 0.581523 -0.787122 0.205599
vn 0.000000 -0.973652 -0.228037
vn 0.625790 0.754603 -0.197386
vn 0.053631 0.858680 -0.509699
vn 0.593027 0.403195 -0.696960
vn 0.000000 0.248178 -0.968714
vn 0.841068 -0.132524 -0.524445
vn 0.106263 -0.523520 -0.845361
vn 0.422134 -0.796796 -0.432342
# 206 normals


s off
g TomGroup_0
usemtl mtl_weapon_explosives_russian
f 1/1/1 3/3/3 2/2/2
f 1/1/1 2/2/2 4/4/4
f 2/2/2 5/5/5 4/4/4
f 2/2/2 6/6/6 5/5/5
f 6/6/6 7/7/7 5/5/5
f 7/7/7 8/8/8 5/5/5
f 9/9/9 11/11/11 10/10/10
f 9/9/9 10/10/10 12/12/12
f 10/10/10 13/13/13 12/12/12
f 10/10/10 14/14/14 13/13/13
f 14/14/14 15/15/15 13/13/13
f 15/15/15 16/16/16 13/13/13
f 17/17/17 19/19/19 18/18/18
f 17/17/17 18/18/18 20/20/20
f 18/18/18 21/21/21 20/20/20
f 18/18/18 22/22/22 21/21/21
f 22/22/22 23/23/23 21/21/21
f 23/23/23 24/24/24 21/21/21
f 25/25/25 27/27/27 26/26/26
f 25/25/25 26/26/26 28/28/28
f 26/26/26 29/29/29 28/28/28
f 26/26/26 30/30/30 29/29/29
f 30/30/30 31/31/31 29/29/29
f 31/31/31 32/32/32 29/29/29
f 33/33/33 35/35/35 34/34/34
f 33/33/33 34/34/34 36/36/36
f 34/34/34 37/37/37 36/36/36
f 34/34/34 38/38/38 37/37/37
f 38/38/38 39/39/39 37/37/37
f 39/39/39 40/40/40 37/37/37
f 41/41/41 43/43/43 42/42/42
f 41/41/41 42/42/42 44/44/44
f 42/42/42 45/45/45 44/44/44
f 42/42/42 46/46/46 45/45/45
f 46/46/46 47/47/47 45/45/45
f 47/47/47 48/48/48 45/45/45
f 49/49/49 51/51/51 50/50/50
f 50/50/50 52/52/52 49/49/49
f 53/53/53 49/49/49 52/52/52
f 52/52/52 54/54/54 53/53/53
f 53/53/53 54/54/54 55/55/55
f 55/55/55 56/56/56 53/53/53
f 57/57/57 56/56/56 55/55/55
f 55/55/55 58/58/58 57/57/57
f 59/59/59 57/57/57 58/58/58
f 58/58/58 60/60/60 59/59/59
f 61/61/61 59/59/59 60/60/60
f 60/60/60 62/62/62 61/61/61
f 63/63/63 61/61/61 62/62/62
f 62/62/62 64/64/64 63/63/63
f 65/65/65 63/63/63 64/64/64
f 64/64/64 66/66/66 65/65/65
f 67/67/67 69/69/69 68/68/68
f 68/68/68 70/70/70 67/67/67
f 71/71/71 67/67/67 70/70/70
f 70/70/70 72/72/72 71/71/71
f 71/71/71 72/72/72 73/73/73
f 73/73/73 74/74/74 71/71/71
f 75/75/75 74/74/74 73/73/73
f 73/73/73 76/76/76 75/75/75
f 77/77/77 75/75/75 76/76/76
f 76/76/76 78/78/78 77/77/77
f 79/79/79 77/77/77 78/78/78
f 78/78/78 80/80/80 79/79/79
f 81/81/81 79/79/79 80/80/80
f 80/80/80 82/82/82 81/81/81
f 83/83/83 81/81/81 82/82/82
f 82/82/82 84/84/84 83/83/83
f 85/85/85 87/87/87 86/86/86
f 86/86/86 88/88/88 85/85/85
f 89/89/89 85/85/85 88/88/88
f 88/88/88 90/90/90 89/89/89
f 89/89/89 90/90/90 91/91/91
f 91/91/91 92/92/92 89/89/89
f 93/93/93 92/92/92 91/91/91
f 91/91/91 94/94/94 93/93/93
f 95/95/95 93/93/93 94/94/94
f 94/94/94 96/96/96 95/95/95
f 97/97/97 95/95/95 96/96/96
f 96/96/96 98/98/98 97/97/97
f 99/99/99 97/97/97 98/98/98
f 98/98/98 100/100/100 99/99/99
f 101/101/101 99/99/99 100/100/100
f 100/100/100 102/102/102 101/101/101
f 103/103/103 105/105/105 104/104/104
f 104/104/104 106/106/106 103/103/103
f 107/107/107 109/109/109 108/108/108
f 108/108/108 110/110/110 107/107/107
f 111/111/111 113/113/113 112/112/112
f 112/112/112 114/114/114 111/111/111
f 114/114/114 112/112/112 115/115/115
f 115/115/115 116/116/116 114/114/114
f 116/116/116 115/115/115 117/117/117
f 117/117/117 118/118/118 116/116/116
f 118/118/118 117/117/117 119/119/119
f 113/113/113 111/111/111 120/120/120
f 120/120/120 121/121/121 113/113/113
f 121/121/121 120/120/120 122/122/122
f 122/122/122 123/123/123 121/121/121
f 123/123/123 122/122/122 124/124/124
f 124/124/124 125/125/125 123/123/123
f 125/125/125 124/124/124 126/126/126
f 126/126/126 119/119/119 125/125/125
f 119/119/119 126/126/126 118/118/118
f 127/127/127 129/129/129 128/128/128
f 128/128/128 130/130/130 127/127/127
f 130/130/130 128/128/128 131/131/131
f 131/131/131 132/132/132 130/130/130
f 132/132/132 131/131/131 133/133/133
f 133/133/133 134/134/134 132/132/132
f 134/134/134 133/133/133 135/135/135
f 129/129/129 127/127/127 136/136/136
f 136/136/136 137/137/137 129/129/129
f 137/137/137 136/136/136 138/138/138
f 138/138/138 139/139/139 137/137/137
f 139/139/139 138/138/138 140/140/140
f 140/140/140 141/141/141 139/139/139
f 141/141/141 140/140/140 142/142/142
f 142/142/142 135/135/135 141/141/141
f 135/135/135 142/142/142 134/134/134
f 143/143/143 145/145/145 144/144/144
f 144/144/144 146/146/146 143/143/143
f 146/146/146 144/144/144 147/147/147
f 147/147/147 148/148/148 146/146/146
f 148/148/148 147/147/147 149/149/149
f 149/149/149 150/150/150 148/148/148
f 150/150/150 149/149/149 151/151/151
f 145/145/145 143/143/143 152/152/152
f 152/152/152 153/153/153 145/145/145
f 153/153/153 152/152/152 154/154/154
f 154/154/154 155/155/155 153/153/153
f 155/155/155 154/154/154 156/156/156
f 156/156/156 157/157/157 155/155/155
f 157/157/157 156/156/156 158/158/158
f 158/158/158 151/151/151 157/157/157
f 151/151/151 158/158/158 150/150/150
f 159/159/159 161/161/161 160/160/160
f 160/160/160 162/162/162 159/159/159
f 162/162/162 160/160/160 163/163/163
f 163/163/163 164/164/164 162/162/162
f 164/164/164 163/163/163 165/165/165
f 165/165/165 166/166/166 164/164/164
f 166/166/166 165/165/165 167/167/167
f 161/161/161 159/159/159 168/168/168
f 168/168/168 169/169/169 161/161/161
f 169/169/169 168/168/168 170/170/170
f 170/170/170 171/171/171 169/169/169
f 171/171/171 170/170/170 172/172/172
f 172/172/172 173/173/173 171/171/171
f 173/173/173 172/172/172 174/174/174
f 174/174/174 167/167/167 173/173/173
f 167/167/167 174/174/174 166/166/166
f 175/175/175 177/177/177 176/176/176
f 176/176/176 178/178/178 175/175/175
f 178/178/178 176/176/176 179/179/179
f 179/179/179 180/180/180 178/178/178
f 180/180/180 179/179/179 181/181/181
f 181/181/181 182/182/182 180/180/180
f 182/182/182 181/181/181 183/183/183
f 177/177/177 175/175/175 184/184/184
f 184/184/184 185/185/185 177/177/177
f 185/185/185 184/184/184 186/186/186
f 186/186/186 187/187/187 185/185/185
f 187/187/187 186/186/186 188/188/188
f 188/188/188 189/189/189 187/187/187
f 189/189/189 188/188/188 190/190/190
f 190/190/190 183/183/183 189/189/189
f 183/183/183 190/190/190 182/182/182
f 191/191/191 193/193/193 192/192/192
f 192/192/192 194/194/194 191/191/191
f 194/194/194 192/192/192 195/195/195
f 195/195/195 196/196/196 194/194/194
f 196/196/196 195/195/195 197/197/197
f 197/197/197 198/198/198 196/196/196
f 198/198/198 197/197/197 199/199/199
f 193/193/193 191/191/191 200/200/200
f 200/200/200 201/201/201 193/193/193
f 201/201/201 200/200/200 202/202/202
f 202/202/202 203/203/203 201/201/201
f 203/203/203 202/202/202 204/204/204
f 204/204/204 205/205/205 203/203/203
f 205/205/205 204/204/204 206/206/206
f 206/206/206 199/199/199 205/205/205
f 199/199/199 206/206/206 198/198/198
# 184 faces

