
# www.tom-crowley.co.uk / www.undeadmodding.com
# Generated By Tom_Bmx XmodelUtills
# Parent Xmodel: weapon_mp_type100_smg_silent
# Surface Load Time: 0.00ms
# Total Meshes: 2

mtllib weapon_jap_smg_type100_LOD31.mtl
v 6.782626 6.527678 2.915219
v 11.081667 5.421630 2.915219
v 6.782626 6.527678 0.673966
v 11.081667 5.421630 0.673966
v 11.081667 5.421630 2.915219
v 6.782626 6.527678 2.915219
v 14.270891 12.131652 3.143268
v 11.455781 15.563888 3.143268
v 22.275928 19.078003 2.925221
v 19.932133 22.847855 2.925219
v 11.081667 5.421630 0.673966
v 11.081667 5.421630 2.915219
v 14.270891 12.131652 0.902015
v 14.270891 12.131652 3.143268
v 22.275928 19.078003 2.925221
v 22.275928 19.078003 0.683969
v 11.081667 5.421630 0.673966
v 14.270891 12.131652 0.902015
v 6.782626 6.527678 0.673966
v 11.455781 15.563888 0.902015
v 22.275928 19.078003 0.683969
v 19.932133 22.847855 0.683966
v 6.782626 6.527678 0.673966
v 11.455781 15.563888 0.902015
v 6.782626 6.527678 2.915219
v 11.455781 15.563888 3.143268
v 19.932133 22.847855 2.925219
v 19.932133 22.847855 0.683966
v 22.275928 19.078003 0.683969
v 22.275928 19.078003 2.925221
v 19.932133 22.847855 2.925219
v 19.932133 22.847855 0.683966
v 5.140338 1.233917 3.089968
v 10.940232 1.222444 3.097560
v 6.490038 6.584686 3.044231
v 11.373155 5.328369 3.017693
v 6.463624 6.592865 0.548797
v 6.490038 6.584686 3.044231
v 5.119647 1.606080 0.489262
v 5.140338 1.233917 3.089968
v 5.119647 1.606080 0.489262
v 10.953189 1.590149 0.477225
v 6.463624 6.592865 0.548797
v 11.373155 5.328369 0.575125
v 10.940232 1.222444 3.097560
v 11.373155 5.328369 3.017693
v 10.953189 1.590149 0.477225
v 11.373155 5.328369 0.575125
v 41.144974 0.819457 -0.429181
v -27.531349 0.819457 -0.429181
v 41.144981 -1.575989 0.349156
v -27.531349 -1.575989 0.349156
v 41.144981 -1.575989 2.867909
v -27.531349 -1.575989 2.867909
v 41.144974 0.819457 3.646244
v -27.531349 0.819457 3.646244
v 41.144974 2.299988 1.608531
v -27.531349 2.299988 1.608531
v 41.144974 0.819457 -0.429181
v -27.531349 0.819457 -0.429181
v 41.144981 -1.575989 0.349156
v 41.144981 -1.575989 2.867909
v 41.144974 0.819457 -0.429181
v 41.144974 2.299988 1.608531
v 41.144974 0.819457 3.646244
v -27.531349 0.819457 -0.429181
v -27.531349 -1.575989 2.867909
v -27.531349 -1.575989 0.349156
v -27.531349 2.299988 1.608531
v -27.531349 0.819457 3.646244
# 70 vertices

vt 0.550626 0.503828
vt 0.433748 0.503828
vt 0.550627 0.553342
vt 0.433748 0.553417
vt 0.814066 0.864461
vt 0.861989 0.888493
vt 0.842568 0.763310
vt 0.895956 0.770394
vt 0.829850 0.618409
vt 0.889324 0.609067
vt 0.883947 0.629631
vt 0.850145 0.629631
vt 0.883872 0.728146
vt 0.850069 0.728146
vt 0.849994 0.835594
vt 0.883796 0.835594
vt 0.814180 0.864733
vt 0.842683 0.763582
vt 0.862156 0.888661
vt 0.896070 0.770666
vt 0.829965 0.618681
vt 0.889439 0.609339
vt 0.961031 0.657368
vt 0.961031 0.807704
vt 0.993127 0.657217
vt 0.993199 0.807704
vt 0.995219 0.970667
vt 0.959153 0.970668
vt 0.800000 0.023688
vt 0.737689 0.018498
vt 0.735978 0.104057
vt 0.800855 0.098659
vt 0.248256 0.335464
vt 0.144879 0.332162
vt 0.231414 0.427203
vt 0.136471 0.394933
vt 0.449489 0.573222
vt 0.450988 0.629601
vt 0.525741 0.570158
vt 0.532483 0.628631
vt 0.255613 0.324874
vt 0.143073 0.323114
vt 0.231414 0.427203
vt 0.136471 0.394933
vt 0.423378 0.731367
vt 0.302970 0.729261
vt 0.414396 0.645736
vt 0.302970 0.648027
vt 0.013664 0.796700
vt 0.013664 0.989071
vt 0.054619 0.796700
vt 0.054619 0.989071
vt 0.095575 0.796700
vt 0.095575 0.989071
vt 0.136530 0.796700
vt 0.136530 0.989071
vt 0.177485 0.796700
vt 0.177485 0.989071
vt 0.218441 0.796700
vt 0.218441 0.989071
vt 0.656216 0.825086
vt 0.657859 0.870828
vt 0.699354 0.811069
vt 0.726015 0.847765
vt 0.699354 0.884461
vt 0.938288 0.616854
vt 0.809141 0.417945
vt 0.801434 0.570183
vt 0.999585 0.503569
vt 0.949640 0.394067
# 70 UV's

vn -0.249164 -0.968461 0.000000
vn -0.249164 -0.968461 0.000000
vn -0.249164 -0.968461 0.000000
vn -0.249164 -0.968461 0.000000
vn -0.014009 -0.021960 0.999661
vn -0.014009 -0.021960 0.999661
vn 0.001168 -0.005127 0.999986
vn 0.001168 -0.005127 0.999986
vn 0.016345 0.011708 0.999798
vn 0.016345 0.011708 0.999798
vn 0.903175 -0.429273 0.000000
vn 0.903175 -0.429273 0.000000
vn 0.796152 -0.605097 0.000000
vn 0.796152 -0.605097 0.000000
vn 0.655397 -0.755285 0.000000
vn 0.655397 -0.755285 0.000000
vn 0.014009 0.021961 -0.999661
vn -0.001168 0.005127 -0.999986
vn 0.014009 0.021961 -0.999661
vn -0.001168 0.005127 -0.999986
vn -0.016345 -0.011708 -0.999798
vn -0.016345 -0.011708 -0.999798
vn -0.888248 0.459365 0.000000
vn -0.784383 0.620277 0.000000
vn -0.888248 0.459365 0.000000
vn -0.784383 0.620277 0.000000
vn -0.651746 0.758437 0.000000
vn -0.651746 0.758437 0.000000
vn 0.849247 0.527995 0.000000
vn 0.849248 0.527995 0.000000
vn 0.849247 0.527995 0.000000
vn 0.849247 0.527995 0.000000
vn -0.003276 -0.012663 -0.999914
vn -0.003276 -0.012663 -0.999914
vn -0.003276 -0.012663 -0.999914
vn -0.003276 -0.012663 -0.999914
vn -0.967324 0.252021 0.027750
vn -0.967324 0.252021 0.027750
vn -0.967324 0.252021 0.027750
vn -0.967324 0.252021 0.027750
vn 0.003399 0.017354 -0.999844
vn 0.003399 0.017354 -0.999844
vn 0.003399 0.017354 -0.999844
vn 0.003399 0.017354 -0.999844
vn 0.994128 -0.108079 -0.005306
vn 0.994128 -0.108079 -0.005306
vn 0.994128 -0.108079 -0.005306
vn 0.994128 -0.108079 -0.005306
vn 0.000000 0.309008 -0.951059
vn 0.000000 0.309008 -0.951059
vn -0.000000 -0.809018 -0.587784
vn -0.000000 -0.809018 -0.587784
vn 0.000000 -0.809018 0.587784
vn 0.000000 -0.809018 0.587784
vn 0.000000 0.309009 0.951059
vn 0.000000 0.309009 0.951059
vn 0.000000 1.000000 0.000000
vn 0.000000 1.000000 0.000000
vn 0.000000 0.309008 -0.951059
vn 0.000000 0.309008 -0.951059
vn 1.000000 0.000003 0.000000
vn 1.000000 0.000002 0.000001
vn 1.000000 0.000002 -0.000002
vn 1.000000 0.000002 0.000001
vn 1.000000 0.000003 0.000005
vn -1.000000 0.000000 0.000000
vn -1.000000 0.000000 0.000000
vn -1.000000 0.000000 0.000000
vn -1.000000 0.000000 0.000000
vn -1.000000 0.000000 0.000000
# 70 normals


s off
g TomGroup_0
usemtl mtl_weapon_mp_type100_metal
f 1/1/1 3/3/3 2/2/2
f 2/2/2 3/3/3 4/4/4
f 5/5/5 7/7/7 6/6/6
f 6/6/6 7/7/7 8/8/8
f 7/7/7 9/9/9 8/8/8
f 8/8/8 9/9/9 10/10/10
f 11/11/11 13/13/13 12/12/12
f 12/12/12 13/13/13 14/14/14
f 14/14/14 13/13/13 15/15/15
f 15/15/15 13/13/13 16/16/16
f 17/17/17 19/19/19 18/18/18
f 18/18/18 19/19/19 20/20/20
f 18/18/18 20/20/20 21/21/21
f 21/21/21 20/20/20 22/22/22
f 23/23/23 25/25/25 24/24/24
f 24/24/24 25/25/25 26/26/26
f 26/26/26 27/27/27 24/24/24
f 24/24/24 27/27/27 28/28/28
f 29/29/29 31/31/31 30/30/30
f 31/31/31 29/29/29 32/32/32
f 33/33/33 35/35/35 34/34/34
f 34/34/34 35/35/35 36/36/36
f 37/37/37 39/39/39 38/38/38
f 38/38/38 39/39/39 40/40/40
f 41/41/41 43/43/43 42/42/42
f 42/42/42 43/43/43 44/44/44
f 45/45/45 47/47/47 46/46/46
f 46/46/46 47/47/47 48/48/48
f 49/49/49 51/51/51 50/50/50
f 50/50/50 51/51/51 52/52/52
f 51/51/51 53/53/53 52/52/52
f 52/52/52 53/53/53 54/54/54
f 53/53/53 55/55/55 54/54/54
f 54/54/54 55/55/55 56/56/56
f 55/55/55 57/57/57 56/56/56
f 56/56/56 57/57/57 58/58/58
f 57/57/57 59/59/59 58/58/58
f 58/58/58 59/59/59 60/60/60
f 61/61/61 63/63/63 62/62/62
f 63/63/63 64/64/64 62/62/62
f 64/64/64 65/65/65 62/62/62
f 66/66/66 68/68/68 67/67/67
f 69/69/69 66/66/66 67/67/67
f 70/70/70 69/69/69 67/67/67
# 44 faces

v -38.989212 -1.322601 -10.115339
v -54.527103 -1.429012 -15.690240
v -54.915203 -1.644744 -2.647503
v -37.657455 -0.909150 -3.300938
v -33.002487 -1.182251 -9.898827
v -25.844706 -2.515136 -3.734958
v -28.474102 -2.194974 0.892708
v 17.712938 -2.194977 0.661706
v 17.757343 -2.255982 -3.501278
v -54.915241 1.900664 -2.647503
v -54.527103 1.684937 -15.690240
v -38.861740 1.518280 -9.807737
v -37.621536 1.206391 -3.139300
v -33.002487 1.438168 -9.898827
v -25.844706 2.771028 -3.734958
v -28.474068 2.450902 0.892708
v 17.712923 2.450897 0.661706
v 17.757359 2.511902 -3.501278
v -28.474102 -2.194974 0.892708
v 16.233965 -1.063600 0.661706
v 17.712938 -2.194977 0.661706
v 17.712923 2.450897 0.661706
v 15.624954 1.314544 0.661706
v -54.915203 -1.644744 -2.647503
v -54.915241 1.900664 -2.647503
v -37.657455 -0.909150 -3.300938
v -37.621536 1.206391 -3.139300
v -54.527103 -1.429012 -15.690240
v -54.527103 1.684937 -15.690240
v -54.915203 -1.644744 -2.647503
v -54.915241 1.900664 -2.647503
v -54.527103 1.684937 -15.690240
v -54.527103 -1.429012 -15.690240
v -38.989212 -1.322601 -10.115339
v -38.861740 1.518280 -9.807737
v -33.002487 -1.182251 -9.898827
v -33.002487 1.438168 -9.898827
v -25.844706 2.771028 -3.734958
v -25.844706 -2.515136 -3.734958
v 17.757359 2.511902 -3.501278
v 17.757343 -2.255982 -3.501278
v 17.712938 -2.194977 0.661706
v 17.712923 2.450897 0.661706
v 17.757343 -2.255982 -3.501278
v 17.757359 2.511902 -3.501278
v -37.657455 -0.909150 -3.300938
v -37.621536 1.206391 -3.139300
v -28.474102 -2.194974 0.892708
v -28.474068 2.450902 0.892708
# 49 vertices

vt 0.639422 0.205035
vt 0.781994 0.171368
vt 0.771925 0.277869
vt 0.601643 0.268170
vt 0.588643 0.197731
vt 0.542973 0.235406
vt 0.537324 0.286406
vt 0.152153 0.235107
vt 0.160777 0.199421
vt 0.771978 0.278000
vt 0.782154 0.171755
vt 0.639582 0.205423
vt 0.601762 0.268462
vt 0.588803 0.198118
vt 0.543132 0.235793
vt 0.537484 0.286794
vt 0.152311 0.235498
vt 0.160936 0.199809
vt 0.379813 0.193080
vt 0.854675 0.204041
vt 0.860338 0.190365
vt 0.863171 0.232135
vt 0.854675 0.241793
vt 0.077990 0.201994
vt 0.077990 0.226320
vt 0.291880 0.196851
vt 0.291133 0.239434
vt 0.025172 0.145226
vt 0.022328 0.166353
vt 0.172945 0.140467
vt 0.180167 0.168732
vt 0.152722 0.220519
vt 0.152722 0.238654
vt 0.314015 0.237365
vt 0.315800 0.215768
vt 0.376796 0.236737
vt 0.376796 0.216391
vt 0.424975 0.211286
vt 0.424975 0.241817
vt 0.881204 0.206040
vt 0.881204 0.247088
vt 0.905197 0.273326
vt 0.959523 0.273411
vt 0.904895 0.226000
vt 0.959524 0.226150
vt 0.466154 0.424765
vt 0.466129 0.449589
vt 0.537531 0.423420
vt 0.537531 0.453902
# 49 UV's

vn 0.216074 -0.538654 -0.814349
vn 0.256022 -0.706890 -0.659362
vn 0.039897 -0.713643 0.699372
vn -0.133844 -0.895111 0.425279
vn 0.354157 -0.569878 -0.741493
vn 0.111523 -0.853440 -0.509119
vn -0.188561 -0.703979 0.684732
vn 0.404002 -0.397851 0.823709
vn 0.591239 -0.585864 -0.554256
vn -0.564843 0.582860 0.584146
vn -0.129315 0.491747 -0.861082
vn 0.139374 0.743387 -0.654179
vn -0.136835 0.892337 0.430129
vn 0.196820 0.741201 -0.641782
vn 0.258501 0.735667 -0.626076
vn -0.239022 0.874695 0.421636
vn 0.707918 0.705232 0.038727
vn 0.591238 0.585863 -0.554258
vn -0.188561 -0.703979 0.684732
vn 0.001667 0.002179 0.999996
vn 0.404002 -0.397851 0.823709
vn 0.000000 0.000000 1.000000
vn 0.000000 0.000000 1.000000
vn 0.039897 -0.713643 0.699372
vn -0.564843 0.582860 0.584146
vn -0.133844 -0.895111 0.425279
vn -0.136835 0.892337 0.430129
vn -0.999558 -0.000006 -0.029744
vn -0.129315 0.491747 -0.861082
vn -0.999558 -0.000006 -0.029744
vn -0.564843 0.582860 0.584146
vn -0.129315 0.491747 -0.861082
vn 0.256022 -0.706890 -0.659362
vn 0.216074 -0.538654 -0.814349
vn 0.139374 0.743387 -0.654179
vn 0.354157 -0.569878 -0.741493
vn 0.196820 0.741201 -0.641782
vn 0.258501 0.735667 -0.626076
vn 0.111523 -0.853440 -0.509119
vn 0.591238 0.585863 -0.554258
vn 0.591239 -0.585864 -0.554256
vn 0.404002 -0.397851 0.823709
vn 0.707918 0.705232 0.038727
vn 0.591239 -0.585864 -0.554256
vn 0.591238 0.585863 -0.554258
vn -0.133844 -0.895111 0.425279
vn -0.136835 0.892337 0.430129
vn -0.188561 -0.703979 0.684732
vn -0.239022 0.874695 0.421636
# 49 normals


s off
g TomGroup_1
usemtl mtl_weapon_mp_type100_wood
f 71/71/71 73/73/73 72/72/72
f 74/74/74 73/73/73 71/71/71
f 74/74/74 71/71/71 75/75/75
f 74/74/74 75/75/75 76/76/76
f 76/76/76 77/77/77 74/74/74
f 77/77/77 76/76/76 78/78/78
f 78/78/78 76/76/76 79/79/79
f 80/80/80 82/82/82 81/81/81
f 83/83/83 82/82/82 80/80/80
f 83/83/83 84/84/84 82/82/82
f 83/83/83 85/85/85 84/84/84
f 86/86/86 85/85/85 83/83/83
f 87/87/87 85/85/85 86/86/86
f 88/88/88 85/85/85 87/87/87
f 89/89/89 91/91/91 90/90/90
f 90/90/90 91/91/91 92/92/92
f 90/90/90 92/92/92 93/93/93
f 94/94/94 96/96/96 95/95/95
f 95/95/95 96/96/96 97/97/97
f 98/98/98 100/100/100 99/99/99
f 99/99/99 100/100/100 101/101/101
f 102/102/102 104/104/104 103/103/103
f 102/102/102 105/105/105 104/104/104
f 105/105/105 106/106/106 104/104/104
f 107/107/107 106/106/106 105/105/105
f 107/107/107 108/108/108 106/106/106
f 106/106/106 108/108/108 109/109/109
f 108/108/108 110/110/110 109/109/109
f 109/109/109 110/110/110 111/111/111
f 112/112/112 114/114/114 113/113/113
f 113/113/113 114/114/114 115/115/115
f 116/116/116 118/118/118 117/117/117
f 117/117/117 118/118/118 119/119/119
# 33 faces

