
# www.tom-crowley.co.uk / www.undeadmodding.com
# Generated By Tom_Bmx XmodelUtills
# Parent Xmodel: weapon_mp_g43_rifle_silent
# Surface Load Time: 1.00ms
# Total Meshes: 2

mtllib weapon_ger_g43_rifle_LOD21.mtl
v 48.146809 -1.546504 -1.038873
v 48.146809 -1.546504 0.814502
v 48.146809 1.546502 -1.038873
v 48.146809 1.546502 0.814502
v -58.169289 -1.546502 0.097203
v -58.169289 -1.546502 -4.611639
v -58.169289 1.546504 0.097203
v -58.169289 1.546504 -4.611639
v -57.647377 -1.546502 -10.232441
v -57.647377 1.546504 -10.232441
v 1.836712 -1.546504 -7.910106
v 10.304116 -1.546504 -6.798831
v 1.836712 1.546504 -7.910106
v 10.304119 1.546502 -6.798831
v 43.475002 -1.546504 -1.517541
v 48.146809 -1.546504 -1.038873
v 43.475002 1.546502 -1.517541
v 48.146809 1.546502 -1.038873
v 43.475002 1.546502 4.438840
v 48.146809 1.546502 3.154980
v 43.475002 -1.546504 4.438843
v 48.146809 -1.546504 3.154980
v 9.844986 -1.546504 4.438843
v 0.366314 -1.546504 4.438843
v 9.844986 1.546504 4.438843
v 0.366314 1.546504 4.438843
v -22.694048 -1.546504 4.438843
v -22.694048 1.546504 4.438843
v 9.844986 1.546504 0.863984
v 9.844986 1.546504 4.438843
v 0.366314 1.546504 0.863984
v 0.366314 1.546504 4.438843
v -22.694048 1.546504 4.438843
v -22.694048 1.546504 0.863986
v 0.366314 -1.546504 4.438843
v 9.844986 -1.546504 4.438843
v 9.844986 -1.546504 0.863984
v 0.366314 -1.546504 0.863984
v -22.694048 -1.546504 0.863986
v -22.694048 -1.546504 4.438843
v 48.146809 1.546502 3.154980
v 62.909832 1.546502 3.154995
v 48.146809 -1.546504 3.154980
v 62.909832 -1.546504 3.154995
v 48.146809 -1.546504 0.814502
v 62.909832 -1.546504 0.814514
v 48.146809 1.546502 0.814502
v 62.909832 1.546502 0.814514
v 66.844215 -1.546507 0.814514
v 66.844215 1.546499 0.814514
v 62.909832 1.546504 7.714787
v 66.844215 1.546502 7.714787
v 62.909832 -1.546502 7.714787
v 66.844215 -1.546504 7.714787
v 62.909832 1.546502 3.154995
v 62.909832 1.546504 7.714787
v 62.909832 -1.546504 3.154995
v 62.909832 -1.546502 7.714787
v 43.475002 -1.546504 -1.517541
v 43.475002 -1.546504 0.863984
v 48.146809 -1.546504 -1.038873
v 48.146809 -1.546504 0.814502
v 48.146809 -1.546504 3.154980
v 62.909832 -1.546504 3.154995
v 62.909832 -1.546504 0.814514
v 66.844215 -1.546504 3.154995
v 66.844215 -1.546507 0.814514
v 43.475002 -1.546504 4.438843
v 62.909832 -1.546502 7.714787
v 66.844215 -1.546504 7.714787
v 66.844215 -1.546507 0.814514
v 66.844215 -1.546504 3.154995
v 66.844215 1.546499 0.814514
v 66.844215 1.546502 3.154992
v 66.844215 -1.546504 7.714787
v 66.844215 1.546502 7.714787
v 43.475002 1.546502 4.438840
v 43.475002 1.546502 0.863984
v 48.146809 1.546502 3.154980
v 48.146809 1.546502 0.814502
v 62.909832 1.546502 0.814514
v 62.909832 1.546502 3.154995
v 66.844215 1.546499 0.814514
v 66.844215 1.546502 3.154992
v 66.844215 1.546502 7.714787
v 62.909832 1.546504 7.714787
v 48.146809 1.546502 -1.038873
v 43.475002 1.546502 -1.517541
v 1.647012 -1.546504 -3.822149
v 1.836712 -1.546504 -7.910106
v 1.647012 1.546504 -3.822149
v 1.836712 1.546504 -7.910106
v 9.844986 1.546504 -2.710873
v 1.647012 1.546504 -3.822149
v 10.304119 1.546502 -6.798831
v 1.836712 1.546504 -7.910106
v 9.844986 1.546504 -2.710873
v 10.304119 1.546502 -6.798831
v 9.844986 -1.546504 -2.710873
v 10.304116 -1.546504 -6.798831
v 9.844986 -1.546504 -2.710873
v 10.304116 -1.546504 -6.798831
v 1.647012 -1.546504 -3.822149
v 1.836712 -1.546504 -7.910106
# 104 vertices

vt 0.834986 0.788891
vt 0.834986 0.812583
vt 0.834986 0.788891
vt 0.834986 0.812583
vt 0.408285 0.124336
vt 0.443396 0.144596
vt 0.424586 0.105504
vt 0.459697 0.125764
vt 0.485307 0.171183
vt 0.501608 0.152351
vt 0.781260 0.800836
vt 0.675398 0.815041
vt 0.781260 0.800836
vt 0.675398 0.815041
vt 0.887162 0.782772
vt 0.834986 0.788891
vt 0.887162 0.782772
vt 0.834986 0.788891
vt 0.887163 0.858913
vt 0.834986 0.842502
vt 0.887163 0.858913
vt 0.834985 0.842502
vt 0.620657 0.858913
vt 0.726519 0.858913
vt 0.620657 0.858913
vt 0.726519 0.858913
vt 0.929516 0.858913
vt 0.929516 0.858913
vt 0.620657 0.813215
vt 0.620657 0.858913
vt 0.726519 0.813216
vt 0.726519 0.858913
vt 0.929516 0.858913
vt 0.929516 0.813215
vt 0.726519 0.858913
vt 0.620657 0.858913
vt 0.620657 0.813215
vt 0.726519 0.813216
vt 0.929516 0.813215
vt 0.929516 0.858913
vt 0.834986 0.842502
vt 0.670106 0.842502
vt 0.834985 0.842502
vt 0.670106 0.842502
vt 0.834986 0.812583
vt 0.670106 0.812583
vt 0.834986 0.812583
vt 0.670106 0.812583
vt 0.626165 0.812583
vt 0.626165 0.812583
vt 0.670106 0.900790
vt 0.626165 0.900790
vt 0.670106 0.900790
vt 0.626165 0.900790
vt 0.670106 0.842502
vt 0.670106 0.900790
vt 0.670106 0.842502
vt 0.670106 0.900790
vt 0.887162 0.782772
vt 0.887162 0.813215
vt 0.834986 0.788891
vt 0.834986 0.812583
vt 0.834985 0.842502
vt 0.670106 0.842502
vt 0.670106 0.812583
vt 0.626165 0.842502
vt 0.626165 0.812583
vt 0.887163 0.858913
vt 0.670106 0.900790
vt 0.626165 0.900790
vt 0.626165 0.812583
vt 0.626165 0.842502
vt 0.626165 0.812583
vt 0.626165 0.842502
vt 0.626165 0.900790
vt 0.626165 0.900790
vt 0.887163 0.858913
vt 0.887162 0.813215
vt 0.834986 0.842502
vt 0.834986 0.812583
vt 0.670106 0.812583
vt 0.670106 0.842502
vt 0.626165 0.812583
vt 0.626165 0.842502
vt 0.626165 0.900790
vt 0.670106 0.900790
vt 0.834986 0.788891
vt 0.887162 0.782772
vt 0.786388 0.853093
vt 0.781260 0.800836
vt 0.786388 0.853093
vt 0.781260 0.800836
vt 0.680526 0.867298
vt 0.786388 0.853093
vt 0.675398 0.815041
vt 0.781260 0.800836
vt 0.680526 0.867298
vt 0.675398 0.815041
vt 0.680526 0.867298
vt 0.675398 0.815041
vt 0.680526 0.867298
vt 0.675398 0.815041
vt 0.786388 0.853093
vt 0.781260 0.800836
# 104 UV's

vn 1.000000 0.000000 -0.000003
vn 1.000000 0.000000 -0.000003
vn 1.000000 0.000000 -0.000003
vn 1.000000 0.000000 -0.000003
vn -1.000000 0.000000 0.000000
vn -0.998929 0.000000 -0.046277
vn -1.000000 0.000000 0.000000
vn -0.998929 0.000000 -0.046277
vn -0.995717 0.000000 -0.092456
vn -0.995717 0.000000 -0.092456
vn 0.130126 0.000000 -0.991498
vn 0.130126 0.000000 -0.991498
vn 0.130126 0.000000 -0.991498
vn 0.130126 0.000000 -0.991498
vn 0.101925 -0.000000 -0.994792
vn 0.101925 -0.000000 -0.994792
vn 0.101925 -0.000000 -0.994792
vn 0.101925 -0.000000 -0.994792
vn 0.264987 0.000000 0.964252
vn 0.264987 0.000000 0.964252
vn 0.264987 0.000000 0.964252
vn 0.264987 0.000000 0.964252
vn 0.000000 0.000000 1.000000
vn 0.000000 0.000000 1.000000
vn 0.000000 0.000000 1.000000
vn 0.000000 0.000000 1.000000
vn 0.000000 0.000000 1.000000
vn 0.000000 0.000000 1.000000
vn 0.000000 1.000000 0.000000
vn 0.000000 1.000000 0.000000
vn 0.000000 1.000000 0.000000
vn 0.000000 1.000000 0.000000
vn 0.000000 1.000000 0.000000
vn 0.000000 1.000000 0.000000
vn 0.000000 -1.000000 0.000000
vn 0.000000 -1.000000 0.000000
vn 0.000000 -1.000000 0.000000
vn 0.000000 -1.000000 0.000000
vn 0.000000 -1.000000 0.000000
vn 0.000000 -1.000000 0.000000
vn -0.000001 0.000000 1.000000
vn -0.000001 0.000000 1.000000
vn -0.000001 0.000000 1.000000
vn -0.000001 0.000000 1.000000
vn 0.000001 -0.000000 -1.000000
vn 0.000001 -0.000000 -1.000000
vn 0.000001 -0.000000 -1.000000
vn 0.000001 -0.000000 -1.000000
vn -0.000000 0.000000 -1.000000
vn -0.000000 0.000000 -1.000000
vn 0.000000 0.000000 1.000000
vn 0.000000 0.000000 1.000000
vn 0.000000 0.000000 1.000000
vn 0.000000 0.000000 1.000000
vn -1.000000 0.000000 -0.000001
vn -1.000000 0.000000 -0.000001
vn -1.000000 0.000000 -0.000001
vn -1.000000 0.000000 -0.000001
vn 0.000000 -1.000000 0.000000
vn 0.000000 -1.000000 0.000000
vn 0.000000 -1.000000 0.000000
vn 0.000000 -1.000000 0.000000
vn 0.000000 -1.000000 0.000000
vn 0.000000 -1.000000 0.000000
vn 0.000000 -1.000000 0.000000
vn 0.000000 -1.000000 0.000000
vn 0.000000 -1.000000 0.000000
vn 0.000000 -1.000000 0.000000
vn -0.000001 -1.000000 0.000000
vn -0.000001 -1.000000 0.000000
vn 1.000000 0.000000 0.000000
vn 1.000000 0.000000 0.000000
vn 1.000000 0.000000 0.000000
vn 1.000000 0.000000 0.000000
vn 1.000000 0.000000 0.000000
vn 1.000000 0.000000 0.000000
vn 0.000000 1.000000 0.000000
vn 0.000000 1.000000 0.000000
vn 0.000000 1.000000 0.000000
vn 0.000000 1.000000 0.000000
vn 0.000000 1.000000 0.000000
vn 0.000000 1.000000 0.000000
vn 0.000000 1.000000 0.000000
vn 0.000000 1.000000 0.000000
vn 0.000001 1.000000 0.000000
vn 0.000001 1.000000 0.000000
vn 0.000000 1.000000 0.000000
vn 0.000000 1.000000 0.000000
vn -0.998925 0.000000 -0.046355
vn -0.998925 0.000000 -0.046355
vn -0.998925 0.000000 -0.046355
vn -0.998925 0.000000 -0.046355
vn 0.000000 1.000000 0.000000
vn 0.000000 1.000000 0.000000
vn 0.000000 1.000000 0.000000
vn 0.000000 1.000000 0.000000
vn 0.993752 0.000000 0.111611
vn 0.993752 0.000000 0.111611
vn 0.993752 0.000000 0.111611
vn 0.993752 0.000000 0.111611
vn 0.000000 -1.000000 0.000000
vn 0.000000 -1.000000 0.000000
vn 0.000000 -1.000000 0.000000
vn 0.000000 -1.000000 0.000000
# 104 normals


s off
g TomGroup_0
usemtl mtl_weapon_mp_g43
f 1/1/1 3/3/3 2/2/2
f 2/2/2 3/3/3 4/4/4
f 5/5/5 7/7/7 6/6/6
f 6/6/6 7/7/7 8/8/8
f 6/6/6 8/8/8 9/9/9
f 9/9/9 8/8/8 10/10/10
f 11/11/11 13/13/13 12/12/12
f 12/12/12 13/13/13 14/14/14
f 15/15/15 17/17/17 16/16/16
f 16/16/16 17/17/17 18/18/18
f 19/19/19 21/21/21 20/20/20
f 20/20/20 21/21/21 22/22/22
f 23/23/23 25/25/25 24/24/24
f 24/24/24 25/25/25 26/26/26
f 24/24/24 26/26/26 27/27/27
f 27/27/27 26/26/26 28/28/28
f 29/29/29 31/31/31 30/30/30
f 30/30/30 31/31/31 32/32/32
f 32/32/32 31/31/31 33/33/33
f 33/33/33 31/31/31 34/34/34
f 35/35/35 37/37/37 36/36/36
f 38/38/38 37/37/37 35/35/35
f 38/38/38 35/35/35 39/39/39
f 39/39/39 35/35/35 40/40/40
f 41/41/41 43/43/43 42/42/42
f 42/42/42 43/43/43 44/44/44
f 45/45/45 47/47/47 46/46/46
f 46/46/46 47/47/47 48/48/48
f 46/46/46 48/48/48 49/49/49
f 49/49/49 48/48/48 50/50/50
f 51/51/51 53/53/53 52/52/52
f 52/52/52 53/53/53 54/54/54
f 55/55/55 57/57/57 56/56/56
f 56/56/56 57/57/57 58/58/58
f 59/59/59 61/61/61 60/60/60
f 60/60/60 61/61/61 62/62/62
f 63/63/63 60/60/60 62/62/62
f 63/63/63 62/62/62 64/64/64
f 64/64/64 62/62/62 65/65/65
f 64/64/64 65/65/65 66/66/66
f 66/66/66 65/65/65 67/67/67
f 68/68/68 60/60/60 63/63/63
f 64/64/64 66/66/66 69/69/69
f 69/69/69 66/66/66 70/70/70
f 71/71/71 73/73/73 72/72/72
f 72/72/72 73/73/73 74/74/74
f 72/72/72 74/74/74 75/75/75
f 75/75/75 74/74/74 76/76/76
f 77/77/77 79/79/79 78/78/78
f 78/78/78 79/79/79 80/80/80
f 80/80/80 79/79/79 81/81/81
f 81/81/81 79/79/79 82/82/82
f 81/81/81 82/82/82 83/83/83
f 83/83/83 82/82/82 84/84/84
f 84/84/84 82/82/82 85/85/85
f 85/85/85 82/82/82 86/86/86
f 87/87/87 78/78/78 80/80/80
f 88/88/88 78/78/78 87/87/87
f 89/89/89 91/91/91 90/90/90
f 90/90/90 91/91/91 92/92/92
f 93/93/93 95/95/95 94/94/94
f 94/94/94 95/95/95 96/96/96
f 97/97/97 99/99/99 98/98/98
f 98/98/98 99/99/99 100/100/100
f 101/101/101 103/103/103 102/102/102
f 102/102/102 103/103/103 104/104/104
# 66 faces

v 43.475002 -1.546504 4.438843
v 9.844986 -1.546504 4.438843
v 43.475002 1.546502 4.438840
v 9.844986 1.546504 4.438843
v 9.844986 -1.546504 -2.710873
v 43.475002 -1.546504 -1.517541
v 9.844986 1.546504 -2.710873
v 43.475002 1.546502 -1.517541
v 1.647012 1.546504 -3.822149
v -22.694048 1.546504 -3.822146
v 1.647012 -1.546504 -3.822149
v -22.694048 -1.546504 -3.822146
v -22.694048 -1.546504 4.438843
v -28.215439 -1.546504 -0.311955
v -22.694048 1.546504 4.438843
v -28.215439 1.546504 -0.311955
v -22.694048 1.546504 -3.822146
v -29.128771 1.546504 -6.053709
v -22.694048 -1.546504 -3.822146
v -29.128771 -1.546502 -6.053712
v -28.215439 -1.546504 -0.311955
v -58.169289 -1.546502 0.097203
v -28.215439 1.546504 -0.311955
v -58.169289 1.546504 0.097203
v 43.475002 1.546502 4.438840
v 9.844986 1.546504 4.438843
v 9.844986 1.546504 0.863984
v 43.475002 1.546502 0.863984
v 43.475002 1.546502 -1.517541
v 9.844986 1.546504 -2.710873
v 1.647012 1.546504 -3.822149
v 0.366314 1.546504 0.863984
v -22.694048 1.546504 -3.822146
v -22.694048 1.546504 0.863986
v -28.215439 1.546504 -2.327872
v -29.128771 1.546504 -6.053709
v -58.169289 1.546504 -4.611639
v -57.647377 1.546504 -10.232441
v -28.215439 1.546504 -0.311955
v -58.169289 1.546504 0.097203
v -22.694048 1.546504 4.438843
v -29.128771 1.546504 -6.053709
v -57.647377 1.546504 -10.232441
v -29.128771 -1.546502 -6.053712
v -57.647377 -1.546502 -10.232441
v 9.844986 -1.546504 4.438843
v 43.475002 -1.546504 4.438843
v 43.475002 -1.546504 0.863984
v 9.844986 -1.546504 0.863984
v 43.475002 -1.546504 -1.517541
v 9.844986 -1.546504 -2.710873
v 1.647012 -1.546504 -3.822149
v 0.366314 -1.546504 0.863984
v -22.694048 -1.546504 -3.822146
v -22.694048 -1.546504 0.863986
v -28.215439 -1.546502 -2.327872
v -28.215439 -1.546504 -0.311955
v -22.694048 -1.546504 4.438843
v -29.128771 -1.546502 -6.053712
v -58.169289 -1.546502 -4.611639
v -58.169289 -1.546502 0.097203
v -57.647377 -1.546502 -10.232441
# 62 vertices

vt 0.092783 0.137009
vt 0.400028 0.136933
vt 0.092776 0.108767
vt 0.400021 0.108691
vt 0.599370 0.107487
vt 0.416842 0.116428
vt 0.580546 0.091186
vt 0.398019 0.100127
vt 0.480024 0.074960
vt 0.625021 0.074924
vt 0.480021 0.065546
vt 0.625019 0.065510
vt 0.091632 0.166161
vt 0.135679 0.166150
vt 0.091625 0.137920
vt 0.135672 0.137909
vt 0.712703 0.082868
vt 0.751949 0.066222
vt 0.731526 0.099169
vt 0.770773 0.082522
vt 0.135679 0.166150
vt 0.374634 0.166091
vt 0.135672 0.137909
vt 0.374627 0.137850
vt 0.097180 0.146171
vt 0.404426 0.146095
vt 0.404418 0.115320
vt 0.097172 0.115396
vt 0.097167 0.094894
vt 0.404411 0.084545
vt 0.480024 0.074960
vt 0.480034 0.115301
vt 0.625021 0.074924
vt 0.625031 0.115266
vt 0.669071 0.087777
vt 0.676349 0.055701
vt 0.908021 0.068058
vt 0.903845 0.019672
vt 0.669075 0.105131
vt 0.908031 0.108595
vt 0.625039 0.146040
vt 0.751949 0.066222
vt 0.901294 0.035031
vt 0.770773 0.082522
vt 0.920118 0.051332
vt 0.568582 0.160797
vt 0.391193 0.160841
vt 0.406587 0.134185
vt 0.583976 0.134142
vt 0.416842 0.116428
vt 0.599370 0.107487
vt 0.647812 0.099190
vt 0.627633 0.134131
vt 0.731526 0.099169
vt 0.711347 0.134110
vt 0.750522 0.110305
vt 0.741841 0.125336
vt 0.695953 0.160766
vt 0.770773 0.082522
vt 0.898317 0.093242
vt 0.878040 0.128353
vt 0.920118 0.051332
# 62 UV's

vn 0.000000 0.000000 1.000000
vn 0.000000 0.000000 1.000000
vn 0.000000 0.000000 1.000000
vn 0.000000 0.000000 1.000000
vn 0.035462 -0.000000 -0.999371
vn 0.035462 -0.000000 -0.999371
vn 0.035462 -0.000000 -0.999371
vn 0.035462 -0.000000 -0.999371
vn 0.000000 0.000000 -1.000000
vn 0.000000 0.000000 -1.000000
vn 0.000000 0.000000 -1.000000
vn 0.000000 0.000000 -1.000000
vn -0.652229 0.000000 0.758022
vn -0.652229 0.000000 0.758022
vn -0.652229 0.000000 0.758022
vn -0.652229 0.000000 0.758022
vn 0.327656 0.000001 -0.944797
vn 0.327656 0.000001 -0.944797
vn 0.327656 0.000001 -0.944797
vn 0.327656 0.000001 -0.944797
vn 0.013658 0.000000 0.999907
vn 0.013658 0.000000 0.999907
vn 0.013658 0.000000 0.999907
vn 0.013658 0.000000 0.999907
vn 0.000000 1.000000 0.000000
vn 0.000000 1.000000 0.000000
vn 0.000000 1.000000 0.000000
vn 0.000000 1.000000 0.000000
vn 0.000000 1.000000 0.000000
vn 0.000000 1.000000 0.000000
vn 0.000000 1.000000 0.000000
vn 0.000000 1.000000 0.000000
vn 0.000000 1.000000 0.000000
vn 0.000000 1.000000 0.000000
vn 0.000000 1.000000 0.000000
vn 0.000000 1.000000 0.000000
vn 0.000000 1.000000 0.000000
vn 0.000000 1.000000 0.000000
vn 0.000000 1.000000 0.000000
vn 0.000000 1.000000 0.000000
vn 0.000000 1.000000 0.000000
vn 0.144978 0.000001 -0.989435
vn 0.144978 0.000001 -0.989435
vn 0.144978 0.000001 -0.989435
vn 0.144978 0.000001 -0.989435
vn 0.000000 -1.000000 0.000000
vn 0.000000 -1.000000 0.000000
vn 0.000000 -1.000000 0.000000
vn 0.000000 -1.000000 0.000000
vn 0.000000 -1.000000 0.000000
vn 0.000000 -1.000000 0.000000
vn 0.000000 -1.000000 0.000000
vn 0.000000 -1.000000 0.000000
vn -0.000000 -1.000000 0.000000
vn 0.000000 -1.000000 0.000000
vn 0.000000 -1.000000 -0.000000
vn 0.000000 -1.000000 -0.000000
vn 0.000000 -1.000000 -0.000000
vn 0.000000 -1.000000 0.000000
vn -0.000000 -1.000000 0.000000
vn -0.000000 -1.000000 0.000000
vn 0.000000 -1.000000 0.000000
# 62 normals


s off
g TomGroup_1
usemtl mtl_weapon_mp_g43_wood
f 105/105/105 107/107/107 106/106/106
f 106/106/106 107/107/107 108/108/108
f 109/109/109 111/111/111 110/110/110
f 110/110/110 111/111/111 112/112/112
f 113/113/113 115/115/115 114/114/114
f 114/114/114 115/115/115 116/116/116
f 117/117/117 119/119/119 118/118/118
f 118/118/118 119/119/119 120/120/120
f 121/121/121 123/123/123 122/122/122
f 122/122/122 123/123/123 124/124/124
f 125/125/125 127/127/127 126/126/126
f 126/126/126 127/127/127 128/128/128
f 129/129/129 131/131/131 130/130/130
f 132/132/132 131/131/131 129/129/129
f 133/133/133 131/131/131 132/132/132
f 134/134/134 131/131/131 133/133/133
f 134/134/134 135/135/135 131/131/131
f 131/131/131 135/135/135 136/136/136
f 135/135/135 137/137/137 136/136/136
f 136/136/136 137/137/137 138/138/138
f 138/138/138 137/137/137 139/139/139
f 139/139/139 137/137/137 140/140/140
f 139/139/139 140/140/140 141/141/141
f 141/141/141 140/140/140 142/142/142
f 143/143/143 138/138/138 139/139/139
f 143/143/143 139/139/139 144/144/144
f 144/144/144 139/139/139 141/141/141
f 145/145/145 138/138/138 143/143/143
f 146/146/146 148/148/148 147/147/147
f 147/147/147 148/148/148 149/149/149
f 150/150/150 152/152/152 151/151/151
f 153/153/153 152/152/152 150/150/150
f 153/153/153 154/154/154 152/152/152
f 155/155/155 154/154/154 153/153/153
f 155/155/155 153/153/153 156/156/156
f 156/156/156 153/153/153 157/157/157
f 156/156/156 157/157/157 158/158/158
f 158/158/158 157/157/157 159/159/159
f 159/159/159 160/160/160 158/158/158
f 159/159/159 161/161/161 160/160/160
f 162/162/162 161/161/161 159/159/159
f 158/158/158 160/160/160 163/163/163
f 160/160/160 164/164/164 163/163/163
f 160/160/160 165/165/165 164/164/164
f 161/161/161 165/165/165 160/160/160
f 163/163/163 164/164/164 166/166/166
# 46 faces

