
# www.tom-crowley.co.uk / www.undeadmodding.com
# Generated By Tom_Bmx XmodelUtills
# Parent Xmodel: weapon_usa_smoke_grenade_red
# Surface Load Time: 0.00ms
# Total Meshes: 1

mtllib weapon_usa_smoke_grenade_lod20.mtl
v 1.921599 -0.717210 3.711905
v 0.133060 -0.717210 3.711905
v 1.921599 0.717207 3.711905
v 1.921599 0.717207 3.711905
v 0.133060 0.717207 3.711905
v 0.337891 0.783603 4.412412
v -1.600198 0.544708 2.516970
v 0.296248 0.783603 4.225036
v -1.332547 0.585762 2.411436
v 0.337891 -0.783605 4.412412
v 0.296248 -0.783605 4.225036
v -1.600198 -0.544711 2.516970
v -1.332547 -0.585765 2.411436
v 1.881822 0.783603 4.225036
v 1.957758 0.685767 4.225036
v 2.000263 0.783603 4.412412
v 2.076196 0.685767 4.412412
v 2.076196 -0.685769 4.412412
v 1.957758 -0.685769 4.225036
v 2.000263 -0.783605 4.412412
v 1.881822 -0.783605 4.225036
v 2.000263 0.783603 4.412412
v 0.337891 0.783603 4.412412
v 1.881822 0.783603 4.225036
v 0.296248 0.783603 4.225036
v 2.000263 -0.783605 4.412412
v 1.881822 -0.783605 4.225036
v 0.337891 -0.783605 4.412412
v 0.296248 -0.783605 4.225036
v -1.600198 0.544708 2.516970
v -2.076194 0.544708 -4.412409
v -1.332547 0.585762 2.411436
v -1.854802 0.544708 -4.412409
v -1.600198 -0.544711 2.516970
v -1.332547 -0.585765 2.411436
v -2.076194 -0.544711 -4.412409
v -1.854802 -0.544711 -4.412409
v 2.000263 -0.783605 4.412412
v 2.076196 0.685767 4.412412
v 2.076196 -0.685769 4.412412
v 0.337891 -0.783605 4.412412
v 2.000263 0.783603 4.412412
v 0.337891 0.783603 4.412412
v -1.600198 -0.544711 2.516970
v -1.600198 0.544708 2.516970
v -2.076194 -0.544711 -4.412409
v -2.076194 0.544708 -4.412409
v -0.436570 0.717207 2.687503
v 1.921599 0.717207 2.687503
v 0.133060 0.717207 3.711905
v 1.921599 0.717207 3.711905
v -0.436570 -0.717210 2.687503
v 0.133060 -0.717210 3.711905
v 1.921599 -0.717210 2.687503
v 1.921599 -0.717210 3.711905
v 1.921599 -0.717210 2.687503
v 1.921599 0.717207 2.687503
v -0.436570 -0.717210 2.687503
v -0.436570 0.717207 2.687503
v 0.133060 -0.717210 3.711905
v 0.133060 0.717207 3.711905
v 0.003111 0.543911 3.633449
v 1.954738 0.521274 3.633452
v 0.403403 0.543911 4.362805
v 1.954738 0.521274 4.362805
v 0.003111 -0.543913 3.633449
v 0.403403 -0.543913 4.362805
v 1.954738 -0.521277 3.633452
v 1.954738 -0.521277 4.362805
v 1.954738 -0.521277 4.362805
v 1.954738 0.521274 4.362805
v 1.954738 -0.521277 3.633452
v 1.954738 0.521274 3.633452
v 0.003111 -0.543913 3.633449
v 0.003111 0.543911 3.633449
v 0.403403 -0.543913 4.362805
v 0.403403 0.543911 4.362805
v 4.121889 0.000000 2.424971
v 1.394384 -2.727508 2.424971
v 1.394384 2.727505 2.424971
v -1.333121 0.000000 2.424971
v 4.125585 0.000000 -9.984570
v 1.394384 2.731201 -9.984570
v 1.394384 -2.731204 -9.984570
v -1.336817 0.000000 -9.984570
v 1.394384 2.731201 -9.984570
v 1.394384 2.727505 2.424971
v -1.336817 0.000000 -9.984570
v -1.333121 0.000000 2.424971
v 1.394384 -2.731204 -9.984570
v 1.394384 -2.727508 2.424971
v 1.394384 2.731201 -9.984570
v 4.121889 0.000000 2.424971
v 1.394384 2.727505 2.424971
v 4.125585 0.000000 -9.984570
v 1.394384 -2.727508 2.424971
v 1.394384 -2.731204 -9.984570
v 1.394384 1.883961 2.385352
v 1.394384 1.858744 2.758895
v -0.489580 0.000000 2.385352
v -0.464363 0.000000 2.758895
v -0.489580 0.000000 2.385352
v -0.464363 0.000000 2.758895
v 1.394384 -1.883964 2.385352
v 1.394384 -1.858747 2.758895
v 1.394384 -1.883964 2.385352
v 1.394384 -1.858747 2.758895
v 3.278345 0.000000 2.385352
v 3.253130 0.000000 2.758895
v 3.278345 0.000000 2.385352
v 3.253130 0.000000 2.758895
v 1.394384 1.883961 2.385352
v 1.394384 1.858744 2.758895
v 1.394384 1.858744 2.758895
v 3.253130 0.000000 2.758895
v -0.464363 0.000000 2.758895
v 1.394384 -1.858747 2.758895
# 117 vertices

vt 0.256249 0.826846
vt 0.102141 0.839874
vt 0.230994 0.931300
vt 0.230994 0.931300
vt 0.102141 0.931300
vt 0.871618 0.132267
vt 0.893519 0.344258
vt 0.858128 0.140594
vt 0.874343 0.343985
vt 0.871618 0.132267
vt 0.858128 0.140594
vt 0.893519 0.344258
vt 0.874343 0.343985
vt 0.858313 0.023524
vt 0.860603 0.013934
vt 0.871479 0.020650
vt 0.876485 0.015286
vt 0.876485 0.015286
vt 0.860603 0.013934
vt 0.871479 0.020650
vt 0.858313 0.023524
vt 0.871479 0.020650
vt 0.871618 0.132267
vt 0.858313 0.023524
vt 0.858128 0.140594
vt 0.871479 0.020650
vt 0.858313 0.023524
vt 0.871618 0.132267
vt 0.858128 0.140594
vt 0.893519 0.344258
vt 0.886962 0.820936
vt 0.874343 0.343985
vt 0.871626 0.819674
vt 0.893519 0.344258
vt 0.874343 0.343985
vt 0.886962 0.820936
vt 0.871626 0.819674
vt 0.871479 0.020650
vt 0.971323 0.015181
vt 0.876485 0.015286
vt 0.871618 0.132267
vt 0.976502 0.020975
vt 0.979203 0.132558
vt 0.893519 0.344258
vt 0.963352 0.344381
vt 0.886962 0.820936
vt 0.967386 0.821152
vt 0.061570 0.774563
vt 0.231459 0.774563
vt 0.102607 0.839856
vt 0.231459 0.839856
vt 0.061105 0.774581
vt 0.102141 0.839874
vt 0.230994 0.774581
vt 0.230994 0.839874
vt 0.329908 0.826573
vt 0.330050 0.944328
vt 0.018994 0.839874
vt 0.018994 0.931300
vt 0.102141 0.839874
vt 0.102141 0.931300
vt 0.465129 0.787603
vt 0.619765 0.787603
vt 0.497196 0.846029
vt 0.619765 0.846029
vt 0.465129 0.787539
vt 0.497196 0.845965
vt 0.619765 0.787539
vt 0.623177 0.847103
vt 0.623177 0.847103
vt 0.623177 0.931972
vt 0.683309 0.847671
vt 0.683309 0.931403
vt 0.430548 0.845965
vt 0.430548 0.933109
vt 0.497196 0.845965
vt 0.497196 0.933109
vt 0.858659 0.605892
vt 0.761416 0.508648
vt 0.761415 0.703135
vt 0.664172 0.605892
vt 0.858791 0.605892
vt 0.761415 0.703267
vt 0.761416 0.508516
vt 0.664040 0.605892
vt 0.332333 0.017686
vt 0.332288 0.749582
vt 0.492230 0.019469
vt 0.486962 0.751362
vt 0.646723 0.021222
vt 0.646769 0.753112
vt 0.332333 0.017686
vt 0.177655 0.751332
vt 0.332288 0.749582
vt 0.172387 0.019439
vt 0.017894 0.753112
vt 0.017849 0.021222
vt 0.763145 0.474325
vt 0.763145 0.463223
vt 0.666402 0.377582
vt 0.677503 0.377582
vt 0.666402 0.377582
vt 0.677503 0.377582
vt 0.763145 0.280840
vt 0.763145 0.291941
vt 0.763145 0.280840
vt 0.763145 0.291941
vt 0.859887 0.377582
vt 0.848786 0.377582
vt 0.859887 0.377582
vt 0.848786 0.377582
vt 0.763145 0.474325
vt 0.763145 0.463223
vt 0.763145 0.463223
vt 0.848786 0.377582
vt 0.677503 0.377582
vt 0.763145 0.291941
# 117 UV's

vn 0.497010 0.000000 0.867745
vn 0.497010 0.000000 0.867745
vn 0.497010 0.000000 0.867745
vn 0.497010 0.000000 0.867745
vn 0.497010 0.000000 0.867745
vn -0.147131 0.988799 0.025062
vn -0.147131 0.988799 0.025062
vn -0.147131 0.988799 0.025062
vn -0.147131 0.988799 0.025062
vn -0.147132 -0.988799 0.025062
vn -0.147132 -0.988799 0.025062
vn -0.147132 -0.988799 0.025062
vn -0.147132 -0.988799 0.025062
vn 0.706766 0.548551 -0.446738
vn 0.706766 0.548551 -0.446738
vn 0.706766 0.548551 -0.446738
vn 0.706766 0.548551 -0.446738
vn 0.706766 -0.548550 -0.446738
vn 0.706766 -0.548550 -0.446738
vn 0.706766 -0.548550 -0.446738
vn 0.706766 -0.548550 -0.446738
vn 0.000000 1.000000 0.000000
vn 0.000000 1.000000 0.000000
vn 0.000000 1.000000 0.000000
vn 0.000000 1.000000 0.000000
vn 0.000000 -1.000000 0.000000
vn 0.000000 -1.000000 0.000000
vn 0.000000 -1.000000 0.000000
vn 0.000000 -1.000000 0.000000
vn -0.082999 0.996545 0.003050
vn -0.082999 0.996545 0.003050
vn -0.082999 0.996545 0.003050
vn -0.082999 0.996545 0.003050
vn -0.082999 -0.996545 0.003050
vn -0.082999 -0.996545 0.003050
vn -0.082999 -0.996545 0.003050
vn -0.082999 -0.996545 0.003050
vn 0.000000 0.000000 1.000000
vn 0.000000 0.000000 1.000000
vn 0.000000 0.000000 1.000000
vn -0.377539 0.000000 0.925994
vn 0.000000 0.000000 1.000000
vn -0.377539 0.000000 0.925994
vn -0.907898 0.000000 0.419190
vn -0.907898 0.000000 0.419190
vn -0.997649 0.000000 0.068531
vn -0.997649 0.000000 0.068531
vn 0.000000 1.000000 0.000000
vn 0.000000 1.000000 0.000000
vn 0.000000 1.000000 0.000000
vn 0.000000 1.000000 0.000000
vn 0.000000 -1.000000 0.000000
vn 0.000000 -1.000000 0.000000
vn 0.000000 -1.000000 0.000000
vn 0.000000 -1.000000 0.000000
vn 0.497010 0.000000 0.867745
vn 0.497010 0.000000 0.867745
vn -0.873969 0.000000 0.485981
vn -0.873969 0.000000 0.485981
vn -0.873969 0.000000 0.485981
vn -0.873969 0.000000 0.485981
vn 0.012923 0.999910 -0.003546
vn 0.012923 0.999910 -0.003546
vn 0.012923 0.999910 -0.003546
vn 0.012923 0.999910 -0.003546
vn 0.012923 -0.999910 -0.003546
vn 0.012923 -0.999910 -0.003546
vn 0.012923 -0.999910 -0.003546
vn 0.012923 -0.999910 -0.003546
vn 1.000000 0.000000 0.000000
vn 1.000000 0.000000 0.000000
vn 1.000000 0.000000 0.000000
vn 1.000000 0.000000 0.000000
vn -0.876649 0.000000 0.481131
vn -0.876649 0.000000 0.481131
vn -0.876649 0.000000 0.481131
vn -0.876649 0.000000 0.481131
vn 0.000000 0.000000 1.000000
vn 0.000000 0.000000 1.000000
vn 0.000000 0.000000 1.000000
vn 0.000000 0.000000 1.000000
vn 0.000000 0.000000 -1.000000
vn 0.000000 0.000000 -1.000000
vn 0.000000 0.000000 -1.000000
vn 0.000000 0.000000 -1.000000
vn 0.000000 1.000000 0.000298
vn 0.000000 1.000000 0.000298
vn -1.000000 0.000000 0.000298
vn -1.000000 0.000000 0.000298
vn 0.000000 -1.000000 0.000298
vn 0.000000 -1.000000 0.000298
vn 0.000000 1.000000 0.000298
vn 1.000000 0.000000 0.000298
vn 0.000000 1.000000 0.000298
vn 1.000000 0.000000 0.000298
vn 0.000000 -1.000000 0.000298
vn 0.000000 -1.000000 0.000298
vn 0.000000 0.997729 0.067354
vn 0.000000 0.997729 0.067354
vn -0.997729 0.000000 0.067353
vn -0.997729 0.000000 0.067353
vn -0.997729 0.000000 0.067353
vn -0.997729 0.000000 0.067353
vn 0.000000 -0.997729 0.067354
vn 0.000000 -0.997729 0.067354
vn 0.000000 -0.997729 0.067354
vn 0.000000 -0.997729 0.067354
vn 0.997729 0.000000 0.067354
vn 0.997729 0.000000 0.067354
vn 0.997729 0.000000 0.067354
vn 0.997729 0.000000 0.067354
vn 0.000000 0.997729 0.067354
vn 0.000000 0.997729 0.067354
vn 0.000000 0.000000 1.000000
vn 0.000000 0.000000 1.000000
vn 0.000000 0.000000 1.000000
vn 0.000000 0.000000 1.000000
# 117 normals


s off
g TomGroup_0
usemtl mtl_us_smoke_grenade_red
f 1/1/1 3/3/3 2/2/2
f 4/4/4 5/5/5 2/2/2
f 6/6/6 8/8/8 7/7/7
f 8/8/8 9/9/9 7/7/7
f 10/10/10 12/12/12 11/11/11
f 11/11/11 12/12/12 13/13/13
f 14/14/14 16/16/16 15/15/15
f 16/16/16 17/17/17 15/15/15
f 18/18/18 20/20/20 19/19/19
f 19/19/19 20/20/20 21/21/21
f 22/22/22 24/24/24 23/23/23
f 25/25/25 23/23/23 24/24/24
f 26/26/26 28/28/28 27/27/27
f 28/28/28 29/29/29 27/27/27
f 30/30/30 32/32/32 31/31/31
f 32/32/32 33/33/33 31/31/31
f 34/34/34 36/36/36 35/35/35
f 35/35/35 36/36/36 37/37/37
f 38/38/38 40/40/40 39/39/39
f 41/41/41 38/38/38 39/39/39
f 42/42/42 41/41/41 39/39/39
f 43/43/43 41/41/41 42/42/42
f 41/41/41 43/43/43 44/44/44
f 43/43/43 45/45/45 44/44/44
f 44/44/44 45/45/45 46/46/46
f 45/45/45 47/47/47 46/46/46
f 48/48/48 50/50/50 49/49/49
f 50/50/50 51/51/51 49/49/49
f 52/52/52 54/54/54 53/53/53
f 54/54/54 55/55/55 53/53/53
f 56/56/56 57/57/57 1/1/1
f 57/57/57 4/4/4 1/1/1
f 58/58/58 60/60/60 59/59/59
f 60/60/60 61/61/61 59/59/59
f 62/62/62 64/64/64 63/63/63
f 64/64/64 65/65/65 63/63/63
f 66/66/66 68/68/68 67/67/67
f 68/68/68 69/69/69 67/67/67
f 70/70/70 72/72/72 71/71/71
f 72/72/72 73/73/73 71/71/71
f 74/74/74 76/76/76 75/75/75
f 76/76/76 77/77/77 75/75/75
f 78/78/78 80/80/80 79/79/79
f 80/80/80 81/81/81 79/79/79
f 82/82/82 84/84/84 83/83/83
f 84/84/84 85/85/85 83/83/83
f 86/86/86 88/88/88 87/87/87
f 88/88/88 89/89/89 87/87/87
f 88/88/88 90/90/90 89/89/89
f 90/90/90 91/91/91 89/89/89
f 92/92/92 94/94/94 93/93/93
f 95/95/95 92/92/92 93/93/93
f 95/95/95 93/93/93 96/96/96
f 97/97/97 95/95/95 96/96/96
f 98/98/98 100/100/100 99/99/99
f 101/101/101 99/99/99 100/100/100
f 102/102/102 104/104/104 103/103/103
f 105/105/105 103/103/103 104/104/104
f 106/106/106 108/108/108 107/107/107
f 109/109/109 107/107/107 108/108/108
f 110/110/110 112/112/112 111/111/111
f 113/113/113 111/111/111 112/112/112
f 114/114/114 116/116/116 115/115/115
f 116/116/116 117/117/117 115/115/115
# 64 faces

