
# www.tom-crowley.co.uk / www.undeadmodding.com
# Generated By Tom_Bmx XmodelUtills
# Parent Xmodel: weapon_mp_svt40_rifle_flash
# Surface Load Time: 0.00ms
# Total Meshes: 2

mtllib weapon_rus_svt40_rifle_LOD31.mtl
v 43.790123 -0.631363 0.925304
v 71.981659 -0.883267 0.673397
v 43.790123 0.640847 0.925304
v 71.981659 0.892752 0.673397
v 43.790123 0.017953 2.197516
v 71.981659 -0.233952 2.449419
v 43.790123 -0.631363 0.925304
v 71.981659 -0.883267 0.673397
v 43.790123 0.640847 0.925304
v 43.790123 0.017953 2.197516
v 22.386509 -1.598232 -0.218752
v 22.386509 -0.928779 3.133001
v 43.762508 -1.362903 0.445955
v 43.762508 -0.791505 3.187695
v 22.346085 0.000000 4.004757
v 43.762508 -0.791505 3.187695
v 22.346085 0.000000 4.004757
v 43.762508 0.808411 3.187695
v 22.386509 0.945688 3.133001
v 43.762508 1.379812 0.445955
v 22.386509 1.615140 -0.218752
v 22.386509 -1.598232 -0.218752
v 43.762508 -1.362903 0.445955
v 22.386509 1.615140 -0.218752
v 43.762508 1.379812 0.445955
v -2.839133 -2.156666 1.227064
v -25.776262 -2.059780 1.314404
v -2.724160 0.000000 4.261274
v -26.036768 0.000000 4.225452
v -25.815899 2.043448 1.308486
v -2.839133 2.156666 1.227064
# 31 vertices

vt 0.446798 0.649935
vt 0.400678 0.820055
vt 0.446798 0.602560
vt 0.400678 0.819585
vt 0.446798 0.697310
vt 0.400678 0.900997
vt 0.446798 0.649935
vt 0.400678 0.820055
vt 0.446798 0.602298
vt 0.446798 0.697048
vt 0.313709 0.400552
vt 0.313709 0.513200
vt 0.000000 0.414787
vt 0.000000 0.514371
vt 0.313709 0.545760
vt 0.000000 0.514371
vt 0.313709 0.545760
vt 0.000000 0.514371
vt 0.313709 0.513200
vt 0.000000 0.414787
vt 0.313709 0.400552
vt 0.313709 0.400552
vt 0.000000 0.414787
vt 0.313709 0.400552
vt 0.000000 0.414787
vt -0.000000 0.553438
vt 0.487816 0.553438
vt -0.000000 0.773250
vt 0.487816 0.773250
vt 0.487816 0.553438
vt -0.000000 0.553438
# 31 UV's

vn -0.015555 -0.834150 -0.551318
vn -0.015555 -0.834150 -0.551318
vn -0.008915 0.865373 -0.501049
vn -0.008915 0.865373 -0.501049
vn -0.009222 -0.059088 0.998210
vn -0.009222 -0.059088 0.998210
vn -0.015555 -0.834150 -0.551318
vn -0.015555 -0.834150 -0.551318
vn -0.008915 0.865373 -0.501049
vn -0.009222 -0.059088 0.998210
vn 0.005182 -0.979876 0.199538
vn 0.015884 -0.632613 0.774305
vn 0.005182 -0.979876 0.199538
vn 0.329729 -0.597310 0.731095
vn 0.012693 0.000000 0.999919
vn 0.329729 -0.597310 0.731095
vn 0.012693 0.000000 0.999919
vn 0.563798 0.522549 0.639589
vn 0.015884 0.632613 0.774305
vn 0.340499 0.728342 -0.594625
vn 0.028656 0.774312 -0.632155
vn 0.031081 0.000000 -0.999517
vn 0.031081 0.000000 -0.999517
vn 0.028656 0.774312 -0.632155
vn 0.340499 0.728342 -0.594625
vn 0.004608 -0.955383 0.295332
vn -0.001064 -0.815698 0.578477
vn 0.000221 0.000575 1.000000
vn -0.002160 0.001149 0.999997
vn -0.001430 0.817025 0.576600
vn 0.004396 0.955375 0.295362
# 31 normals


s off
g TomGroup_0
usemtl mtl_weapon_mp_svt40
f 1/1/1 3/3/3 2/2/2
f 2/2/2 3/3/3 4/4/4
f 5/5/5 7/7/7 6/6/6
f 6/6/6 7/7/7 8/8/8
f 9/9/9 10/10/10 4/4/4
f 4/4/4 10/10/10 6/6/6
f 11/11/11 13/13/13 12/12/12
f 12/12/12 13/13/13 14/14/14
f 12/12/12 14/14/14 15/15/15
f 16/16/16 18/18/18 17/17/17
f 17/17/17 18/18/18 19/19/19
f 20/20/20 19/19/19 18/18/18
f 21/21/21 19/19/19 20/20/20
f 22/22/22 24/24/24 23/23/23
f 23/23/23 24/24/24 25/25/25
f 26/26/26 28/28/28 27/27/27
f 27/27/27 28/28/28 29/29/29
f 28/28/28 30/30/30 29/29/29
f 31/31/31 30/30/30 28/28/28
# 19 faces

v -57.580563 -1.861348 -1.393198
v -55.543522 0.000000 -13.476625
v -57.580563 1.861348 -1.393198
v -36.029404 0.000000 -7.835605
v -26.341393 -2.064924 -2.910868
v -26.341393 2.064924 -2.910868
v -35.383533 1.468565 -1.689656
v -25.815899 2.043448 1.308486
v -35.383533 -1.468565 -1.689656
v -25.815899 2.043448 1.308486
v -25.776262 -2.059780 1.314404
v -35.383533 -1.468565 -1.689656
v 43.762508 -0.791505 3.187695
v 43.762508 0.808411 3.187695
v 43.762508 -1.362903 0.445955
v 43.762508 1.379812 0.445955
v -35.383533 1.468565 -1.689656
v -35.383533 -1.468565 -1.689656
v -57.580563 1.861348 -1.393198
v -57.580563 -1.861348 -1.393198
v -55.543522 0.000000 -13.476625
v -36.029404 0.000000 -7.835605
v -57.580563 1.861348 -1.393198
v -35.383533 1.468565 -1.689656
v -26.341393 2.064924 -2.910868
v -25.815899 2.043448 1.308486
v 22.430882 1.708434 -0.614342
v -2.839133 2.156666 1.227064
v 22.430882 1.617993 2.062775
v -26.341393 2.064924 -2.910868
v -26.341393 -2.064924 -2.910868
v 22.430882 1.708434 -0.614342
v 22.430882 -1.708434 -0.614342
v 22.430882 -1.708434 -0.614342
v -2.839133 -2.156666 1.227064
v 22.430882 -1.617993 2.062775
v -25.776262 -2.059780 1.314404
v -26.341393 -2.064924 -2.910868
v -35.383533 -1.468565 -1.689656
v -36.029404 0.000000 -7.835605
v -57.580563 -1.861348 -1.393198
v -55.543522 0.000000 -13.476625
v 22.430882 -1.617993 2.062775
v -2.839133 -2.156666 1.227064
v -2.724160 0.000000 4.261274
v 22.346085 0.000000 4.004757
v 22.430882 1.617993 2.062775
v -2.839133 2.156666 1.227064
# 48 vertices

vt 0.878027 0.260252
vt 0.988223 0.238843
vt 0.878027 0.217433
vt 0.833283 0.316946
vt 0.590514 0.255856
vt 0.590514 0.255473
vt 0.819738 0.289091
vt 0.537320 0.287307
vt 0.819738 0.289474
vt 0.537320 0.287307
vt 0.535387 0.261135
vt 0.819738 0.289474
vt 0.072653 0.510335
vt 0.127188 0.510335
vt 0.053176 0.427643
vt 0.146665 0.427643
vt 0.819738 0.289091
vt 0.819738 0.289474
vt 0.995503 0.266543
vt 0.995503 0.266926
vt 0.957570 0.007755
vt 0.729811 0.015969
vt 0.994569 0.212263
vt 0.715595 0.170618
vt 0.524566 0.105615
vt 0.502818 0.233751
vt 0.001579 0.165262
vt 0.265991 0.241833
vt 0.001579 0.255388
vt 0.590514 0.255473
vt 0.590514 0.255856
vt 0.000000 0.274858
vt 0.000000 0.275241
vt 0.001579 0.165262
vt 0.265991 0.241833
vt 0.001579 0.255388
vt 0.502818 0.233751
vt 0.524566 0.105615
vt 0.715595 0.170618
vt 0.729811 0.015969
vt 0.994569 0.212263
vt 0.957570 0.007755
vt 0.002286 0.005216
vt 0.456937 0.003150
vt 0.456937 0.108003
vt 0.002286 0.100076
vt 0.002286 0.005216
vt 0.456937 0.003150
# 48 UV's

vn -0.986086 0.000000 -0.166236
vn -0.986086 0.000000 -0.166236
vn -0.986086 0.000000 -0.166236
vn 0.453147 0.000000 -0.891436
vn 0.255797 0.000000 -0.966731
vn 0.255797 0.000000 -0.966731
vn -0.144496 -0.000445 0.989505
vn -0.298731 -0.000879 0.954337
vn -0.144496 -0.000445 0.989505
vn -0.298731 -0.000879 0.954337
vn -0.298731 -0.000879 0.954337
vn -0.144496 -0.000445 0.989505
vn 0.329729 -0.597310 0.731095
vn 0.563798 0.522549 0.639589
vn 1.000000 0.000000 0.000000
vn 0.340499 0.728342 -0.594625
vn -0.144496 -0.000445 0.989505
vn -0.144496 -0.000445 0.989505
vn 0.013355 0.000000 0.999911
vn 0.013355 0.000000 0.999911
vn 0.031973 0.983648 -0.177240
vn -0.025339 0.987865 -0.153237
vn 0.031973 0.983648 -0.177240
vn -0.025339 0.987865 -0.153237
vn -0.037238 0.996058 -0.080513
vn -0.037238 0.996058 -0.080513
vn 0.008240 0.999453 -0.032030
vn 0.004396 0.955375 0.295362
vn 0.008240 0.999453 -0.032030
vn 0.255797 0.000000 -0.966731
vn 0.255797 0.000000 -0.966731
vn 0.047035 0.000000 -0.998893
vn 0.047035 0.000000 -0.998893
vn 0.008455 -0.999411 -0.033247
vn 0.004608 -0.955383 0.295332
vn 0.008455 -0.999411 -0.033247
vn -0.037202 -0.995963 -0.081689
vn -0.037202 -0.995963 -0.081689
vn -0.025409 -0.987775 -0.153801
vn -0.025409 -0.987775 -0.153801
vn 0.031973 -0.983648 -0.177240
vn 0.031973 -0.983648 -0.177240
vn 0.001572 -0.796724 0.604341
vn 0.004608 -0.955383 0.295332
vn 0.000221 0.000575 1.000000
vn 0.012693 0.000000 0.999919
vn 0.001572 0.796724 0.604341
vn 0.004396 0.955375 0.295362
# 48 normals


s off
g TomGroup_1
usemtl mtl_weapon_mp_svt40_wood
f 32/32/32 34/34/34 33/33/33
f 35/35/35 37/37/37 36/36/36
f 38/38/38 40/40/40 39/39/39
f 41/41/41 43/43/43 42/42/42
f 44/44/44 46/46/46 45/45/45
f 45/45/45 46/46/46 47/47/47
f 48/48/48 50/50/50 49/49/49
f 49/49/49 50/50/50 51/51/51
f 52/52/52 54/54/54 53/53/53
f 53/53/53 54/54/54 55/55/55
f 53/53/53 55/55/55 56/56/56
f 56/56/56 55/55/55 57/57/57
f 56/56/56 57/57/57 58/58/58
f 57/57/57 59/59/59 58/58/58
f 59/59/59 60/60/60 58/58/58
f 61/61/61 63/63/63 62/62/62
f 62/62/62 63/63/63 64/64/64
f 65/65/65 67/67/67 66/66/66
f 68/68/68 65/65/65 66/66/66
f 69/69/69 65/65/65 68/68/68
f 70/70/70 69/69/69 68/68/68
f 71/71/71 69/69/69 70/70/70
f 72/72/72 71/71/71 70/70/70
f 73/73/73 71/71/71 72/72/72
f 74/74/74 76/76/76 75/75/75
f 77/77/77 76/76/76 74/74/74
f 77/77/77 78/78/78 76/76/76
f 76/76/76 78/78/78 79/79/79
# 28 faces

