
# www.tom-crowley.co.uk / www.undeadmodding.com
# Generated By Tom_Bmx XmodelUtills
# Parent Xmodel: weapon_usa_smoke_grenade_green
# Surface Load Time: 0.00ms
# Total Meshes: 1

mtllib weapon_usa_smoke_grenade_lod31.mtl
v 2.727505 0.000000 5.163891
v 0.000000 -2.727508 5.163891
v 0.000000 2.727505 5.163891
v -2.727505 0.000000 5.163891
v 2.731201 0.000000 -7.245649
v 0.000000 2.731201 -7.245649
v 0.000000 -2.731204 -7.245649
v -2.731201 0.000000 -7.245649
v 0.000000 2.731201 -7.245649
v 0.000000 2.727505 5.163891
v -2.731201 0.000000 -7.245649
v -2.727505 0.000000 5.163891
v 0.000000 -2.731204 -7.245649
v 0.000000 -2.727508 5.163891
v 0.000000 2.731201 -7.245649
v 2.727505 0.000000 5.163891
v 0.000000 2.727505 5.163891
v 2.731201 0.000000 -7.245649
v 0.000000 -2.727508 5.163891
v 0.000000 -2.731204 -7.245649
# 20 vertices

vt 0.858659 0.605892
vt 0.761416 0.508648
vt 0.761415 0.703135
vt 0.664172 0.605892
vt 0.858791 0.605892
vt 0.761415 0.703267
vt 0.761416 0.508516
vt 0.664040 0.605892
vt 0.332333 0.017686
vt 0.332288 0.749582
vt 0.492230 0.019469
vt 0.486962 0.751362
vt 0.646723 0.021222
vt 0.646769 0.753112
vt 0.332333 0.017686
vt 0.177655 0.751332
vt 0.332288 0.749582
vt 0.172387 0.019439
vt 0.017894 0.753112
vt 0.017849 0.021222
# 20 UV's

vn 0.000000 0.000000 1.000000
vn 0.000000 0.000000 1.000000
vn 0.000000 0.000000 1.000000
vn 0.000000 0.000000 1.000000
vn 0.000000 0.000000 -1.000000
vn 0.000000 0.000000 -1.000000
vn 0.000000 0.000000 -1.000000
vn 0.000000 0.000000 -1.000000
vn 0.000000 1.000000 0.000298
vn 0.000000 1.000000 0.000298
vn -1.000000 0.000000 0.000298
vn -1.000000 0.000000 0.000298
vn 0.000000 -1.000000 0.000298
vn 0.000000 -1.000000 0.000298
vn 0.000000 1.000000 0.000298
vn 1.000000 0.000000 0.000298
vn 0.000000 1.000000 0.000298
vn 1.000000 0.000000 0.000298
vn 0.000000 -1.000000 0.000298
vn 0.000000 -1.000000 0.000298
# 20 normals


s off
g TomGroup_0
usemtl mtl_us_smoke_grenade_green
f 1/1/1 3/3/3 2/2/2
f 3/3/3 4/4/4 2/2/2
f 5/5/5 7/7/7 6/6/6
f 7/7/7 8/8/8 6/6/6
f 9/9/9 11/11/11 10/10/10
f 11/11/11 12/12/12 10/10/10
f 11/11/11 13/13/13 12/12/12
f 13/13/13 14/14/14 12/12/12
f 15/15/15 17/17/17 16/16/16
f 18/18/18 15/15/15 16/16/16
f 18/18/18 16/16/16 19/19/19
f 20/20/20 18/18/18 19/19/19
# 12 faces

